<svg width="16" height="16" viewBox="0 0 16 16" fill="none" xmlns="http://www.w3.org/2000/svg">
<g clip-path="url(#clip0)">
<path d="M15.1317 6.88469H9.11625V0.869222C9.11625 0.595192 8.74415 0.00100708 7.99997 0.00100708C7.25579 0.00100708 6.88368 0.595225 6.88368 0.869222V6.88472H0.868215C0.594218 6.88469 0 7.2568 0 8.00094C0 8.74509 0.594218 9.11723 0.868215 9.11723H6.88371V15.1327C6.88371 15.4067 7.25579 16.0009 8 16.0009C8.74421 16.0009 9.11629 15.4067 9.11629 15.1327V9.11723H15.1318C15.4058 9.11723 16 8.74515 16 8.00094C16 7.25673 15.4057 6.88469 15.1317 6.88469Z" fill="#153C55"/>
</g>
<defs>
<clipPath id="clip0">
<rect width="16" height="16" fill="white"/>
</clipPath>
</defs>
</svg>
