<svg width="19" height="19" viewBox="0 0 19 19" fill="none" xmlns="http://www.w3.org/2000/svg">
<g clip-path="url(#clip0)">
<path d="M8.87522 0.258745L3.22113 5.91283C2.87616 6.2578 2.87616 6.81728 3.22113 7.16225C3.56617 7.50729 4.1255 7.50729 4.47054 7.16225L8.61647 3.01631V18.1165C8.61647 18.6044 9.01205 19 9.49993 19C9.98773 19 10.3834 18.6044 10.3834 18.1165V3.01631L14.5293 7.16211C14.8744 7.50715 15.4337 7.50715 15.7787 7.16211C15.9511 6.98966 16.0375 6.76349 16.0375 6.5374C16.0375 6.31131 15.9511 6.08521 15.7787 5.91269L10.1246 0.258745C9.77959 -0.0862942 9.22026 -0.0862942 8.87522 0.258745Z" fill="#009487"/>
</g>
<defs>
<clipPath id="clip0">
<rect width="19" height="19" fill="white" transform="translate(0 19) rotate(-90)"/>
</clipPath>
</defs>
</svg>
