<svg width="29" height="29" viewBox="0 0 29 29" fill="none" xmlns="http://www.w3.org/2000/svg">
<g clip-path="url(#clip0)">
<path d="M0.39493 15.4534L9.02485 24.0834C9.55139 24.6099 10.4053 24.6099 10.9319 24.0834C11.4585 23.5567 11.4585 22.703 10.9319 22.1764L4.60385 15.8484L27.6516 15.8484C28.3962 15.8484 29 15.2446 29 14.4999C29 13.7554 28.3962 13.1515 27.6516 13.1515L4.60385 13.1515L10.9316 6.82352C11.4583 6.29688 11.4583 5.44316 10.9316 4.91652C10.6684 4.65341 10.3232 4.52159 9.97814 4.52159C9.63305 4.52159 9.28796 4.65341 9.02464 4.91652L0.39493 13.5464C-0.131712 14.0731 -0.131712 14.9268 0.39493 15.4534Z" fill="#153C55"/>
</g>
<defs>
<clipPath id="clip0">
<rect width="29" height="29" fill="white" transform="translate(29 29) rotate(-180)"/>
</clipPath>
</defs>
</svg>
