<svg width="19" height="19" viewBox="0 0 19 19" fill="none" xmlns="http://www.w3.org/2000/svg">
<g clip-path="url(#clip0)">
<path d="M10.1248 18.7413L15.7789 13.0872C16.1238 12.7422 16.1238 12.1827 15.7789 11.8378C15.4338 11.4927 14.8745 11.4927 14.5295 11.8378L10.3835 15.9837L10.3835 0.883451C10.3835 0.395574 9.98795 0 9.50007 0C9.01227 0 8.61662 0.395574 8.61662 0.883451L8.61662 15.9837L4.47069 11.8379C4.12565 11.4929 3.56632 11.4929 3.22128 11.8379C3.0489 12.0103 2.96253 12.2365 2.96253 12.4626C2.96253 12.6887 3.0489 12.9148 3.22128 13.0873L8.87537 18.7413C9.22041 19.0863 9.77974 19.0863 10.1248 18.7413Z" fill="#C7000F"/>
</g>
<defs>
<clipPath id="clip0">
<rect width="19" height="19" fill="white" transform="translate(19) rotate(90)"/>
</clipPath>
</defs>
</svg>
