<svg width="44" height="44" viewBox="0 0 44 44" fill="none" xmlns="http://www.w3.org/2000/svg">
<g clip-path="url(#clip0)">
<path d="M37.3119 15.5423C36.4834 15.2236 35.5995 14.9344 34.67 14.6749C34.91 13.7403 35.1015 12.8301 35.2399 11.9532C35.9597 7.38872 35.1642 4.18683 33.0001 2.93733C32.371 2.57409 31.648 2.38985 30.8512 2.38985C28.3346 2.38985 25.1546 4.25892 21.9465 7.41531C21.2457 6.72704 20.5417 6.09484 19.84 5.52734C16.247 2.62165 13.0761 1.70954 10.9122 2.95905C9.52141 3.762 8.67558 5.4018 8.46635 7.70094C8.43115 8.08711 8.71574 8.42862 9.10191 8.46373C9.4893 8.49949 9.82951 8.21433 9.86471 7.82816C9.9806 6.55553 10.3781 4.88877 11.6142 4.17513C13.216 3.2501 15.8924 4.14096 18.957 6.6191C19.6257 7.15983 20.297 7.76282 20.9661 8.41963C19.6205 9.85132 18.2815 11.4991 16.9958 13.3202C14.734 13.5261 12.5797 13.8714 10.6026 14.3451C10.2564 12.9993 10.0186 11.7151 9.90131 10.523C9.8634 10.1371 9.52132 9.85516 9.13384 9.89307C8.74795 9.93099 8.46588 10.2747 8.50389 10.6605C8.62803 11.9219 8.87911 13.2786 9.24506 14.6985C8.34671 14.9519 7.49161 15.2333 6.68828 15.5422C2.37516 17.2011 0 19.491 0 21.9899C0 24.4888 2.37516 26.7787 6.68809 28.4375C7.5166 28.7562 8.40054 29.0453 9.32997 29.3048C9.09003 30.2395 8.89849 31.1497 8.76012 32.0266C8.0403 36.5911 8.83576 39.7929 10.9999 41.0424C11.629 41.4057 12.352 41.5899 13.1488 41.5899C15.6365 41.5899 18.7725 39.7629 21.943 36.6721C22.6222 37.3355 23.3042 37.9462 23.9841 38.496C26.5269 40.5524 28.8577 41.6102 30.7703 41.6101C31.5603 41.61 32.2793 41.4295 32.9119 41.0643C35.076 39.8148 35.8715 36.6129 35.1517 32.0484C35.0134 31.1716 34.8219 30.2615 34.5819 29.3269C36.0273 28.9289 37.3568 28.46 38.5343 27.9264C38.8875 27.7663 39.044 27.3503 38.8839 26.9971C38.7238 26.6439 38.3077 26.4872 37.9546 26.6474C36.8394 27.1528 35.5789 27.5976 34.206 27.976C33.6384 26.0793 32.8825 24.0992 31.9614 22.0961C32.9239 20.0251 33.7106 17.9766 34.2965 16.017C39.5077 17.4761 42.5957 19.7806 42.5957 21.9899C42.5957 23.4173 41.351 24.595 40.3068 25.3315C39.9899 25.555 39.9143 25.993 40.1377 26.3099C40.3613 26.6269 40.7993 26.7025 41.1162 26.479C43.0029 25.1482 44 23.5959 44 21.9899C44 19.491 41.6248 17.2011 37.3119 15.5423ZM30.8511 3.7942C31.3982 3.7942 31.885 3.91506 32.2979 4.15351C33.8998 5.07844 34.4666 7.84164 33.8526 11.7345C33.721 12.5684 33.539 13.4345 33.3106 14.3248C31.3253 13.8541 29.1635 13.5122 26.8949 13.3105C25.622 11.5091 24.2861 9.86171 22.9278 8.4187C23.1764 8.17361 23.4251 7.93582 23.6734 7.70702C26.4119 5.18376 28.9609 3.7942 30.8511 3.7942ZM21.9485 9.42545C23.008 10.5547 24.0549 11.8143 25.0681 13.1797C24.0599 13.1247 23.0355 13.0963 22 13.0963C20.9299 13.0963 19.8713 13.1263 18.8306 13.1849C19.8424 11.8219 20.8907 10.5571 21.9485 9.42545ZM21.9436 34.6699C20.8465 33.5072 19.7626 32.204 18.7151 30.788C19.793 30.8511 20.8902 30.8835 22 30.8835C23.069 30.8835 24.1281 30.8523 25.1709 30.7928C24.1243 32.203 23.0386 33.5086 21.9436 34.6699ZM22 29.4793C20.4914 29.4793 19.0438 29.4208 17.6642 29.3122C16.8894 28.1817 16.1398 26.9924 15.4261 25.7563C14.7237 24.5397 14.0776 23.3122 13.4923 22.0907C14.0998 20.8118 14.7755 19.5245 15.514 18.2452C16.2293 17.0065 16.9885 15.8053 17.7774 14.659C19.1231 14.5561 20.5325 14.5005 22 14.5005C23.4298 14.5005 24.8044 14.5533 26.1186 14.6512C26.9082 15.7996 27.6717 17.0089 28.3981 18.2669C29.133 19.5398 29.8055 20.8207 30.4108 22.0933C29.8286 23.3049 29.1853 24.5234 28.4861 25.7345C27.7722 26.9709 27.0144 28.1699 26.2271 29.3143C24.8494 29.4227 23.4345 29.4793 22 29.4793ZM15.8573 29.1371C14.1298 28.9375 12.5262 28.6569 11.0637 28.3123C11.5078 26.8342 12.0708 25.3016 12.7421 23.7447C13.2007 24.6517 13.6903 25.5584 14.2099 26.4584C14.7406 27.3775 15.2911 28.2719 15.8573 29.1371ZM15.9687 14.8297C15.3966 15.702 14.838 16.6076 14.2979 17.5431C13.7425 18.5051 13.2214 19.4725 12.7367 20.4385C12.0305 18.8172 11.4393 17.2203 10.9778 15.6875C12.4947 15.3262 14.1647 15.0338 15.9687 14.8297ZM1.40426 21.9899C1.40426 19.7925 4.45935 17.5009 9.6198 16.0405C10.2035 17.9879 10.9867 20.0305 11.942 22.0926C11.0233 24.0924 10.2695 26.0692 9.70331 27.9628C4.49231 26.5036 1.40426 24.1992 1.40426 21.9899ZM13.1489 40.1856C12.6018 40.1856 12.115 40.0647 11.7021 39.8263C10.1002 38.9013 9.5334 36.1381 10.1474 32.2453C10.279 31.4114 10.461 30.5453 10.6894 29.655C12.6102 30.1104 14.6962 30.4452 16.8843 30.6491C18.1903 32.5034 19.5634 34.1956 20.9594 35.6715C20.7484 35.8775 20.5373 36.0785 20.3266 36.2728C17.5881 38.7961 15.0391 40.1856 13.1489 40.1856ZM33.7647 32.2671C34.3787 36.16 33.8119 38.9231 32.21 39.8481C30.6079 40.7729 27.9318 39.8822 24.8672 37.4041C24.2219 36.8823 23.574 36.3025 22.9282 35.6723C24.3101 34.2139 25.6864 32.5265 27.0065 30.6564C29.2001 30.455 31.2962 30.1231 33.2216 29.6726C33.4505 30.5644 33.6329 31.4319 33.7647 32.2671ZM32.8444 28.3208C31.3405 28.6703 29.7259 28.9453 28.0382 29.1395C28.6079 28.2705 29.1641 27.3685 29.7021 26.4367C30.2185 25.5421 30.705 24.6429 31.1605 23.7446C31.8341 25.3042 32.3989 26.8398 32.8444 28.3208ZM31.167 20.4434C30.6847 19.483 30.1664 18.5213 29.6142 17.5648C29.0695 16.6213 28.504 15.7039 27.9218 14.8173C29.7338 15.0182 31.4115 15.3082 32.9363 15.6675C32.4725 17.2115 31.8783 18.8151 31.167 20.4434Z" fill="#153C55"/>
<path d="M22.0001 18.4792C20.0643 18.4792 18.4895 20.0541 18.4895 21.9899C18.4895 23.9257 20.0643 25.5005 22.0001 25.5005C23.936 25.5005 25.5108 23.9257 25.5108 21.9899C25.5108 20.0541 23.936 18.4792 22.0001 18.4792ZM22.0001 24.0963C20.8387 24.0963 19.8938 23.1513 19.8938 21.9899C19.8938 20.8285 20.8387 19.8835 22.0001 19.8835C23.1616 19.8835 24.1065 20.8285 24.1065 21.9899C24.1065 23.1513 23.1616 24.0963 22.0001 24.0963Z" fill="#153C55"/>
</g>
<defs>
<clipPath id="clip0">
<rect width="44" height="44" fill="white"/>
</clipPath>
</defs>
</svg>
