<svg width="26" height="25" viewBox="0 0 26 25" fill="none" xmlns="http://www.w3.org/2000/svg">
<g clip-path="url(#clip0)">
<path d="M22.079 1.95312H20.908V0H18.9564V1.95312H6.07585V0H4.12424V1.95312H2.95328C1.33911 1.95312 0.0258789 3.26738 0.0258789 4.88281V22.0703C0.0258789 23.6857 1.33911 25 2.95328 25H22.079C23.6932 25 25.0064 23.6857 25.0064 22.0703V4.88281C25.0064 3.26738 23.6932 1.95312 22.079 1.95312ZM23.0548 22.0703C23.0548 22.6088 22.617 23.0469 22.079 23.0469H2.95328C2.41523 23.0469 1.97748 22.6088 1.97748 22.0703V9.17969H23.0548V22.0703ZM23.0548 7.22656H1.97748V4.88281C1.97748 4.34434 2.41523 3.90625 2.95328 3.90625H4.12424V5.85938H6.07585V3.90625H18.9564V5.85938H20.908V3.90625H22.079C22.617 3.90625 23.0548 4.34434 23.0548 4.88281V7.22656Z" fill="#CDD6DF"/>
<path d="M5.68549 11.8164H3.73389V13.7695H5.68549V11.8164Z" fill="#CDD6DF"/>
<path d="M9.58881 11.8164H7.63721V13.7695H9.58881V11.8164Z" fill="#CDD6DF"/>
<path d="M13.4919 11.8164H11.5403V13.7695H13.4919V11.8164Z" fill="#CDD6DF"/>
<path d="M17.3952 11.8164H15.4436V13.7695H17.3952V11.8164Z" fill="#CDD6DF"/>
<path d="M21.2983 11.8164H19.3467V13.7695H21.2983V11.8164Z" fill="#CDD6DF"/>
<path d="M5.68549 7.91016H3.73389V9.86328H5.68549V7.91016Z" fill="#CDD6DF"/>
<path d="M9.58881 7.91016H7.63721V9.86328H9.58881V7.91016Z" fill="#CDD6DF"/>
<path d="M13.4919 7.91016H11.5403V9.86328H13.4919V7.91016Z" fill="#CDD6DF"/>
<path d="M17.3952 7.91016H15.4436V9.86328H17.3952V7.91016Z" fill="#CDD6DF"/>
<path d="M5.68549 4.00391H3.73389V5.95703H5.68549V4.00391Z" fill="#CDD6DF"/>
<path d="M9.58881 4.00391H7.63721V5.95703H9.58881V4.00391Z" fill="#CDD6DF"/>
<path d="M13.4919 4.00391H11.5403V5.95703H13.4919V4.00391Z" fill="#CDD6DF"/>
<path d="M17.3952 4.00391H15.4436V5.95703H17.3952V4.00391Z" fill="#CDD6DF"/>
<path d="M21.2983 7.91016H19.3467V9.86328H21.2983V7.91016Z" fill="#CDD6DF"/>
</g>
<defs>
<clipPath id="clip0">
<rect width="24.9805" height="25" fill="white" transform="matrix(1 0 0 -1 0.0258789 25)"/>
</clipPath>
</defs>
</svg>
