<svg width="10" height="10" viewBox="0 0 10 10" fill="none" xmlns="http://www.w3.org/2000/svg">
<g clip-path="url(#clip0)">
<path fill-rule="evenodd" clip-rule="evenodd" d="M6.18874 4.99954L9.75411 1.43416C10.0823 1.10597 10.0823 0.573856 9.75411 0.245706C9.42591 -0.0824905 8.89385 -0.0824905 8.56565 0.245706L5.00023 3.81112L1.43481 0.245659C1.10662 -0.0825375 0.574553 -0.0825375 0.246356 0.245659C-0.0817933 0.573856 -0.0817933 1.10597 0.246356 1.43412L3.81178 4.99949L0.246356 8.56491C-0.0817933 8.8931 -0.0817933 9.42521 0.246356 9.75336C0.574553 10.0816 1.10662 10.0816 1.43481 9.75336L5.00023 6.18795L8.56565 9.75336C8.8938 10.0816 9.42591 10.0816 9.75411 9.75336C10.0823 9.42517 10.0823 8.8931 9.75411 8.56491L6.18874 4.99954Z" fill="#950413"/>
</g>
<defs>
<clipPath id="clip0">
<rect width="10" height="10" fill="white"/>
</clipPath>
</defs>
</svg>
