<svg width="16" height="16" viewBox="0 0 16 16" fill="none" xmlns="http://www.w3.org/2000/svg">
<path d="M15.1399 1.64635e-05H0.875077C0.623484 -0.000459439 0.392831 0.14009 0.277822 0.363922C0.161226 0.590767 0.18169 0.863934 0.330647 1.07111L5.55667 8.43297C5.55841 8.43551 5.56032 8.43789 5.56206 8.44043C5.75195 8.69678 5.85458 9.00722 5.85522 9.3264V15.3285C5.8541 15.5063 5.9239 15.677 6.04922 15.8031C6.17454 15.9292 6.34492 15.9999 6.52259 15.9999C6.61301 15.9999 6.70232 15.9819 6.78576 15.9473L9.72238 14.8275C9.98555 14.7472 10.1602 14.499 10.1602 14.1999V9.3264C10.1607 9.00738 10.2635 8.69678 10.4532 8.44043C10.455 8.43789 10.4569 8.43551 10.4586 8.43297L15.6845 1.07079C15.8334 0.863776 15.8539 0.590767 15.7373 0.363922C15.6223 0.14009 15.3916 -0.000459439 15.1399 1.64635e-05ZM9.79837 7.95929C9.50648 8.3554 9.34864 8.83431 9.34769 9.3264V14.1013L6.66742 15.1232V9.3264C6.66647 8.83431 6.50863 8.3554 6.21658 7.95929L1.14301 0.81222H14.8721L9.79837 7.95929Z" fill="#153C55"/>
</svg>
