<svg width="20" height="17" viewBox="0 0 20 17" fill="none" xmlns="http://www.w3.org/2000/svg">
<path d="M13.1668 6.36667L11.5668 7.33336C11.0001 7.66668 10.4001 7.96668 9.83345 8.23336C9.66677 8.30004 9.46677 8.40004 9.26677 8.50004C8.56677 8.86672 8.20009 9.63336 8.36677 10.4C8.50009 11 9.00009 11.5 9.60009 11.6334C9.73341 11.6667 9.86677 11.6667 10.0001 11.6667C10.6334 11.6667 11.2001 11.3 11.5001 10.7334C11.5668 10.5667 11.6668 10.3667 11.7668 10.1667C12.0668 9.6 12.3334 9 12.6668 8.43336L13.6334 6.83336C13.7001 6.70004 13.6668 6.56668 13.5668 6.43335C13.4668 6.3 13.3001 6.3 13.1668 6.36667ZM12.1001 8.06668C11.7334 8.66668 11.4334 9.26668 11.1668 9.86668C11.1001 10.0667 11.0001 10.2334 10.9001 10.4334C10.7001 10.8667 10.2334 11.0667 9.76677 10.9667C9.40009 10.9 9.10009 10.6 9.03345 10.2334C8.93345 9.76668 9.13345 9.30004 9.56677 9.10004C9.73345 9.00004 9.93345 8.93336 10.1334 8.83336C10.7334 8.53336 11.3668 8.23336 11.9334 7.90004L12.3668 7.63336L12.1001 8.06668Z" fill="#B5C4CF"/>
<path d="M19.2859 6.2998C19.2817 6.27734 19.2754 6.25504 19.2667 6.23332C19.258 6.21152 19.2469 6.19156 19.234 6.17328C18.7345 4.97734 18.0088 3.8973 17.111 2.98715C17.0984 2.96832 17.0836 2.95027 17.0667 2.93332C17.0497 2.91637 17.0317 2.90164 17.0129 2.88898C15.2044 1.1052 12.7252 0 10 0C8.69461 0 7.44574 0.253906 6.2998 0.714101C6.27734 0.71832 6.25504 0.724649 6.23336 0.73332C6.2116 0.742031 6.1916 0.753125 6.17332 0.766016C4.97738 1.26551 3.89734 1.99121 2.98719 2.88898C2.96836 2.90164 2.95031 2.91637 2.93336 2.93332C2.91641 2.95027 2.90164 2.96832 2.88902 2.98715C1.1052 4.79559 0 7.27484 0 10C0 12.2667 0.73332 14.4333 2.16668 16.2C2.23336 16.3 2.33336 16.3333 2.43336 16.3333H17.5667C17.6667 16.3333 17.7667 16.3 17.8334 16.2C19.2667 14.4334 20 12.2667 20 10C20 8.69461 19.7461 7.44574 19.2859 6.2998ZM17.4333 15.6667H2.6C2.14926 15.0854 1.77492 14.4618 1.4791 13.8067L2.4 13.4334C2.56668 13.3667 2.63332 13.1667 2.56668 13C2.5 12.8334 2.3 12.7667 2.13336 12.8334L1.23062 13.1993C0.895703 12.2875 0.707422 11.3235 0.672891 10.3334H3C3.2 10.3334 3.33332 10.2 3.33332 10C3.33332 9.80004 3.2 9.66668 3 9.66668H0.67332C0.710703 8.61562 0.923945 7.6075 1.28457 6.67082L2.2 7.06668C2.23332 7.1 2.3 7.1 2.33332 7.1C2.46664 7.1 2.56664 7.03332 2.63332 6.9C2.7 6.73332 2.63332 6.53332 2.46664 6.46668L1.54195 6.0668C1.95988 5.17496 2.51484 4.35895 3.17953 3.64621L3.86664 4.33332C3.93332 4.4 3.99996 4.43332 4.09996 4.43332C4.19996 4.43332 4.26664 4.4 4.33328 4.33332C4.4666 4.2 4.4666 4 4.33328 3.86664L3.64617 3.17953C4.39293 2.48313 5.25285 1.90684 6.19477 1.48273L6.56664 2.4C6.59996 2.53332 6.73332 2.6 6.86664 2.6C6.89996 2.6 6.93332 2.6 6.99996 2.56668C7.16664 2.5 7.23328 2.3 7.16664 2.13336L6.80223 1.23445C7.70148 0.903867 8.66469 0.708984 9.66664 0.673359V3.00004C9.66664 3.20004 9.79996 3.33336 9.99996 3.33336C10.2 3.33336 10.3333 3.20004 10.3333 3.00004V0.67332C11.3843 0.710703 12.3925 0.923945 13.3291 1.28457L12.9333 2.20004C12.8666 2.36672 12.9333 2.56672 13.1 2.63336C13.1333 2.66668 13.2 2.66668 13.2333 2.66668C13.3666 2.66668 13.5 2.56668 13.5333 2.46668L13.9332 1.54199C14.825 1.95992 15.641 2.51488 16.3538 3.17957L15.6666 3.86668C15.5333 4 15.5333 4.2 15.6666 4.33336C15.7333 4.40004 15.8 4.43336 15.9 4.43336C15.9666 4.43336 16.0666 4.40004 16.1333 4.33336L16.8204 3.64625C17.5168 4.39301 18.0931 5.25293 18.5172 6.19484L17.5999 6.56672C17.4332 6.6334 17.3666 6.8334 17.4332 7.00004C17.4666 7.13336 17.5999 7.20004 17.7332 7.20004C17.7666 7.20004 17.7999 7.16672 17.8666 7.16672L18.7655 6.8023C19.0961 7.70156 19.291 8.66477 19.3266 9.66672H17C16.8 9.66672 16.6667 9.80004 16.6667 10C16.6667 10.2 16.8 10.3334 17 10.3334H19.3271C19.2909 11.3721 19.0861 12.3822 18.7249 13.3333L17.8 12.9334C17.6333 12.8667 17.4333 12.9334 17.3667 13.1C17.3 13.2667 17.3667 13.4667 17.5334 13.5334L18.4701 13.9384C18.1892 14.5455 17.8427 15.1245 17.4333 15.6667Z" fill="#B5C4CF"/>
</svg>
