<svg width="35" height="39" viewBox="0 0 35 39" fill="none" xmlns="http://www.w3.org/2000/svg">
<path d="M32.8088 19.0317C32.8088 17.0446 31.198 15.4338 29.211 15.4338C29.0831 15.4338 28.9571 15.4406 28.8328 15.4536L33.7745 0.878693H12.7739L17.7087 15.441C17.6363 15.4366 17.5636 15.4338 17.4901 15.4338C15.503 15.4338 13.8922 17.0446 13.8922 19.0317C13.8922 20.6378 14.9448 21.9976 16.3977 22.4603C15.6303 23.7895 14.6648 24.9866 13.5686 26.0207C12.0779 27.427 10.3719 28.4933 8.52691 29.1504C6.33011 28.0219 5.29269 25.512 6.22881 23.3115C6.33449 23.0631 6.44236 22.8111 6.54558 22.5604C8.13699 22.1889 9.32289 20.7621 9.32289 19.0575C9.32289 17.0704 7.71207 15.4596 5.725 15.4596C3.73779 15.4596 2.12697 17.0704 2.12697 19.0575C2.12697 20.2761 2.73332 21.3522 3.66 22.0031C2.76941 24.0308 1.46047 26.1527 1.05263 28.612C0.563865 31.5595 1.05113 34.6881 3.60025 36.455C9.53713 40.5696 15.9815 33.9042 22.7763 32.2286C25.2387 31.6213 27.9418 31.7192 30.1114 30.4626C31.7407 29.5189 32.8147 27.9552 33.1196 26.1994C33.4207 24.465 32.9817 22.7381 31.9721 21.3378C32.4943 20.7133 32.8088 19.9094 32.8088 19.0317ZM21.0877 19.0444C21.0877 19.0401 21.0881 19.0359 21.0881 19.0317C21.0881 17.7268 20.3933 16.5841 19.3537 15.9534L23.2813 8.01131L27.2158 16.0377C26.2496 16.6827 25.6129 17.7827 25.6129 19.0317C25.6129 19.0579 25.6144 19.0837 25.615 19.1099L21.0877 19.0444Z" fill="#153C55"/>
<path d="M33.6874 19.0317C33.6874 16.8462 32.1128 15.0227 30.0386 14.6331L35 0H11.5481L16.517 14.6628C14.515 15.1084 13.0133 16.8975 13.0133 19.0317C13.0133 20.6344 13.8603 22.0422 15.1297 22.8333C14.5191 23.7428 13.7951 24.5988 12.9653 25.3816C11.6495 26.623 10.1835 27.5644 8.60303 28.1837C7.01122 27.1838 6.33829 25.2982 7.03719 23.6553L7.09188 23.5268C7.12606 23.4464 7.16038 23.3658 7.19455 23.2851C8.94291 22.6755 10.2014 21.0112 10.2014 19.0575C10.2014 16.589 8.19315 14.5809 5.72469 14.5809C3.25623 14.5809 1.24811 16.589 1.24811 19.0575C1.24811 20.3034 1.76012 21.4316 2.58426 22.244C2.43483 22.5626 2.27774 22.8863 2.11627 23.218C1.36268 24.7658 0.508599 26.5202 0.185532 28.4683C-0.456089 32.3373 0.578735 35.4301 3.09942 37.1771C4.62903 38.2372 6.18229 38.6542 7.74539 38.6541C10.6888 38.6539 13.6661 37.1753 16.5782 35.7288C18.6756 34.6872 20.8443 33.61 22.9865 33.0817C23.7836 32.8851 24.6038 32.7668 25.4721 32.6416C27.1939 32.3932 28.9745 32.1364 30.5517 31.223C32.3798 30.1641 33.6313 28.3879 33.9851 26.3498C34.2889 24.6002 33.9232 22.848 33.0315 21.3619C33.4473 20.6827 33.6874 19.8848 33.6874 19.0317ZM31.93 19.0317C31.93 20.5311 30.7102 21.751 29.2106 21.751C27.7114 21.751 26.4914 20.5311 26.4914 19.0317C26.4914 17.5323 27.7114 16.3125 29.2106 16.3125C30.7102 16.3125 31.93 17.5323 31.93 19.0317ZM32.5485 1.75738L28.1673 14.6791C27.9774 14.7246 27.7923 14.782 27.6125 14.8511L23.2846 6.02205L18.944 14.7988C18.7564 14.7342 18.5634 14.681 18.3654 14.6416L13.9993 1.75738H32.5485ZM17.4899 16.3125C18.9893 16.3125 20.2091 17.5323 20.2091 19.0317C20.2091 20.5311 18.9893 21.751 17.4899 21.751C15.9906 21.751 14.7707 20.5311 14.7707 19.0317C14.7707 17.5323 15.9906 16.3125 17.4899 16.3125ZM5.72469 16.3383C7.22422 16.3383 8.44403 17.5581 8.44403 19.0575C8.44403 20.5569 7.22422 21.7768 5.72469 21.7768C4.22543 21.7768 3.00549 20.5569 3.00549 19.0575C3.00549 17.5581 4.22543 16.3383 5.72469 16.3383ZM32.2536 26.0492C31.989 27.5733 31.0476 28.9048 29.6708 29.7021C28.3875 30.4455 26.8495 30.6674 25.2212 30.9021C24.3489 31.0279 23.4469 31.1581 22.5657 31.3754C20.2357 31.9499 17.9789 33.0709 15.7965 34.1549C11.429 36.3243 7.65707 38.1976 4.10061 35.7327C1.49543 33.9272 1.61575 30.5864 1.91926 28.7558C2.20049 27.0598 2.96092 25.4978 3.69633 23.9872C3.82362 23.7258 3.94721 23.4697 4.06848 23.2153C4.43325 23.3611 4.82112 23.4605 5.22539 23.5056C4.47686 25.9763 5.65414 28.6625 8.12506 29.932L8.46317 30.1057L8.82137 29.9782C10.7748 29.2826 12.5747 28.1661 14.1713 26.6599C15.2034 25.6863 16.0903 24.6091 16.8196 23.4581C17.0383 23.491 17.2621 23.5084 17.4899 23.5084C19.9583 23.5084 21.9666 21.5003 21.9666 19.0317C21.9666 17.7041 21.3851 16.5103 20.4642 15.6897L23.2776 10.0006L26.1196 15.7981C25.2669 16.6138 24.7341 17.7613 24.7341 19.0317C24.7341 21.5003 26.7422 23.5084 29.2106 23.5084C30.1591 23.5084 31.0388 23.2111 31.7635 22.7061C32.2666 23.736 32.454 24.8948 32.2536 26.0492Z" fill="white"/>
</svg>
