<svg width="29" height="30" viewBox="0 0 29 30" fill="none" xmlns="http://www.w3.org/2000/svg">
<g clip-path="url(#clip0)">
<path d="M17.6667 26.2152L15.1256 28.7461C14.7297 29.1405 14.0574 29.11 13.6271 28.678L0.780435 15.7834C0.350097 15.3514 0.322155 14.6791 0.718147 14.2847L3.97732 11.0386L17.6044 24.7166C18.0347 25.1485 18.0627 25.8208 17.6667 26.2152ZM1.19839 14.7668C1.04616 14.9184 1.05692 15.1772 1.22235 15.3432L14.069 28.2379C14.2344 28.4039 14.4932 28.4157 14.6454 28.2641L17.1864 25.7332C17.3387 25.5816 17.3279 25.3228 17.1625 25.1567L4.01565 11.9608L1.19839 14.7668Z" fill="#153C55"/>
<path d="M17.6064 5.28042L7.84694 15.0648L3.77124 10.9999L13.5307 1.2156C13.9599 0.785292 14.6392 0.764461 15.045 1.16916L17.6489 3.76609C18.0546 4.1708 18.0356 4.85011 17.6064 5.28042ZM7.87308 14.1329L17.1535 4.82878C17.3185 4.66337 17.3259 4.40188 17.1699 4.2463L14.566 1.64937C14.41 1.4938 14.1485 1.50182 13.9835 1.66724L4.70307 10.9714L7.87308 14.1329Z" fill="#153C55"/>
<path d="M2.82417 15.4908L1.86442 16.4537C1.73196 16.5866 1.5245 16.5949 1.4014 16.4722C1.2783 16.3495 1.286 16.1422 1.41846 16.0093L2.37821 15.0464C2.51067 14.9135 2.71792 14.9052 2.84102 15.0278C2.96412 15.1505 2.95664 15.3579 2.82417 15.4908Z" fill="#153C55"/>
<path d="M4.94495 16.2418L3.26149 17.9339C3.12871 18.0674 2.92499 18.0803 2.8068 17.9628C2.68871 17.8454 2.70056 17.6417 2.83333 17.5082L4.5168 15.816C4.64957 15.6826 4.8533 15.6696 4.97139 15.7871C5.08957 15.9046 5.07773 16.1083 4.94495 16.2418Z" fill="#153C55"/>
<path d="M5.65254 18.4907L4.69279 19.4536C4.56033 19.5865 4.35287 19.5948 4.22987 19.4723C4.10677 19.3496 4.11437 19.1421 4.24683 19.0092L5.20658 18.0463C5.33904 17.9134 5.54639 17.9052 5.66949 18.0279C5.79249 18.1504 5.78501 18.3578 5.65254 18.4907Z" fill="#153C55"/>
<path d="M7.77332 19.2418L6.08986 20.9339C5.95708 21.0674 5.75345 21.0804 5.63527 20.9629C5.51708 20.8454 5.52893 20.6417 5.6617 20.5082L7.34517 18.816C7.47794 18.6826 7.68167 18.6696 7.79985 18.7872C7.91804 18.9047 7.9061 19.1083 7.77332 19.2418Z" fill="#153C55"/>
<path d="M8.48102 21.4907L7.52127 22.4537C7.38881 22.5866 7.18135 22.5949 7.05824 22.4722C6.93514 22.3495 6.94273 22.1421 7.0752 22.0092L8.03494 21.0462C8.16741 20.9133 8.37476 20.9051 8.49786 21.0278C8.62097 21.1505 8.61348 21.3578 8.48102 21.4907Z" fill="#153C55"/>
<path d="M10.6017 22.2418L8.91822 23.934C8.78545 24.0674 8.58173 24.0804 8.46354 23.9629C8.34535 23.8454 8.3573 23.6417 8.49007 23.5083L10.1735 21.8161C10.3063 21.6826 10.5099 21.6696 10.6281 21.7871C10.7463 21.9046 10.7345 22.1084 10.6017 22.2418Z" fill="#153C55"/>
<path d="M11.3095 24.4907L10.3498 25.4536C10.2173 25.5865 10.0099 25.5948 9.88675 25.4721C9.76375 25.3496 9.77135 25.1421 9.90381 25.0092L10.8636 24.0463C10.996 23.9134 11.2034 23.9052 11.3264 24.0278C11.4495 24.1504 11.442 24.3578 11.3095 24.4907V24.4907Z" fill="#153C55"/>
<path d="M13.4301 25.2418L11.7466 26.9339C11.6138 27.0674 11.4101 27.0803 11.292 26.9629C11.1738 26.8454 11.1857 26.6417 11.3184 26.5082L13.0019 24.816C13.1347 24.6826 13.3384 24.6696 13.4566 24.7872C13.5747 24.9046 13.5628 25.1083 13.4301 25.2418V25.2418Z" fill="#153C55"/>
<path d="M14.1379 27.4906L13.1781 28.4536C13.0457 28.5865 12.8383 28.5949 12.7152 28.4722C12.5921 28.3495 12.5997 28.1421 12.7322 28.0092L13.6919 27.0462C13.8244 26.9133 14.0317 26.9051 14.1548 27.0278C14.2779 27.1505 14.2704 27.3577 14.1379 27.4906V27.4906Z" fill="#153C55"/>
<path d="M13.9191 3.22217C13.796 3.34485 13.5888 3.33655 13.4563 3.20365L12.4966 2.24072C12.3641 2.10782 12.3564 1.90046 12.4795 1.77779C12.6026 1.65512 12.8101 1.66342 12.9425 1.79632L13.9023 2.75925C14.0348 2.89215 14.0422 3.0995 13.9191 3.22217Z" fill="#153C55"/>
<path d="M13.2209 5.46288C13.1027 5.5804 12.8991 5.56736 12.7663 5.4339L11.0828 3.74174C10.9501 3.60828 10.9381 3.40464 11.0563 3.28712C11.1745 3.16961 11.3782 3.18255 11.511 3.31601L13.1945 5.00817C13.3272 5.14163 13.3391 5.34537 13.2209 5.46288V5.46288Z" fill="#153C55"/>
<path d="M11.0906 6.2222C10.9675 6.34487 10.7602 6.33667 10.6277 6.20377L9.66797 5.24085C9.53551 5.10795 9.52791 4.90048 9.65101 4.77781C9.77411 4.65514 9.98147 4.66355 10.1139 4.79645L11.0737 5.75937C11.2061 5.89227 11.2137 6.09953 11.0906 6.2222Z" fill="#153C55"/>
<path d="M10.3926 8.46285C10.2744 8.58036 10.0707 8.56742 9.93794 8.43396L8.25447 6.7418C8.1217 6.60834 8.10986 6.4046 8.22804 6.28709C8.34623 6.16957 8.54985 6.18261 8.68263 6.31607L10.3661 8.00823C10.4989 8.14169 10.5108 8.34533 10.3926 8.46285Z" fill="#153C55"/>
<path d="M8.26216 9.22224C8.13916 9.3448 7.93181 9.33661 7.79935 9.20371L6.8396 8.24079C6.70714 8.10789 6.69954 7.90042 6.82254 7.77785C6.94564 7.65518 7.1531 7.66348 7.28557 7.79639L8.24532 8.75931C8.37778 8.89221 8.38527 9.09957 8.26216 9.22224Z" fill="#153C55"/>
<path d="M7.56416 11.4629C7.44597 11.5804 7.24235 11.5674 7.10957 11.4339L5.42611 9.74174C5.29333 9.60828 5.28139 9.40464 5.39958 9.28712C5.51776 9.16961 5.72149 9.18255 5.85426 9.31601L7.53773 11.0082C7.6705 11.1416 7.68235 11.3454 7.56416 11.4629Z" fill="#153C55"/>
</g>
<defs>
<clipPath id="clip0">
<rect width="20.6155" height="20.6155" fill="white" transform="matrix(0.685994 -0.727607 0.685994 0.727607 0 15)"/>
</clipPath>
</defs>
</svg>
