<svg width="501" height="394" viewBox="0 0 501 394" fill="none" xmlns="http://www.w3.org/2000/svg">
<g clip-path="url(#clip0)">
<g opacity="0.5">
<path opacity="0.5" d="M357.601 0.0514504C355.64 0.0205766 353.165 0.566011 351.653 3.27775C348.689 8.60862 353.459 13.852 350.999 19.5328C350.3 21.0787 349.198 22.4081 347.809 23.3817C345.432 25.0952 343.008 25.6046 340.605 26.6286C337.718 27.7789 335.329 29.9108 333.859 32.649C332.397 35.6068 331.9 38.9491 332.439 42.2044C332.912 45.0448 334.029 47.2985 334.95 49.7273C336.068 52.7348 336.877 55.8486 337.363 59.0203C337.638 60.4991 337.718 62.0077 337.6 63.5073C337.331 65.4175 336.867 67.2951 336.216 69.1108L330.926 85.6746C330.165 87.8326 329.597 90.054 329.228 92.3124C328.996 94.67 329.065 97.0476 329.434 99.3877C330.01 104.235 330.653 109.278 332.948 112.308C335.243 115.339 339.746 115.535 343.039 111.238C346.173 107.122 346.98 100.895 349.852 96.4186C354.375 89.3588 361.609 89.9712 366.457 83.3591C371.088 77.0196 371.016 67.8707 373.923 60.07C375.981 54.4818 379.583 49.7787 382.012 44.3501C385.516 36.5236 386.319 27.7349 385.099 20.7986C384.01 14.701 381.319 9.00245 377.304 4.2863C375.801 2.46475 374.165 0.771839 372.081 0.169801C369.863 -0.488838 367.65 1.19892 365.366 1.35329C362.726 1.48708 360.261 0.0926153 357.601 0.0514504Z" fill="#6C63FF"/>
<path opacity="0.5" d="M370.033 0.102905C370.033 0.102905 357.272 74.0197 336.072 114.377" stroke="#535461" stroke-width="2" stroke-miterlimit="10"/>
<path opacity="0.5" d="M351.508 3.61731C351.508 3.61731 367.079 19.5687 361.121 41.6126" stroke="#535461" stroke-width="2" stroke-miterlimit="10"/>
<path opacity="0.5" d="M333.154 34.2802C333.154 34.2802 360.555 45.1992 356.932 57.6104" stroke="#535461" stroke-width="2" stroke-miterlimit="10"/>
<path opacity="0.5" d="M385.181 20.6339C385.181 20.6339 372.966 25.6097 360.307 44.8749" stroke="#535461" stroke-width="2" stroke-miterlimit="10"/>
<path opacity="0.5" d="M366.276 83.4362C366.276 83.4362 358.007 86.3075 353.783 68.5139" stroke="#535461" stroke-width="2" stroke-miterlimit="10"/>
<path opacity="0.5" d="M331.878 85.1291C331.878 85.1291 347.788 87.2491 350.155 79.9835" stroke="#535461" stroke-width="2" stroke-miterlimit="10"/>
</g>
<g opacity="0.5">
<path opacity="0.5" d="M52.584 91.5405C51.4828 93.1666 50.5772 95.5284 52.018 98.2813C54.8481 103.684 61.8461 102.573 65.2474 107.744C66.1562 109.177 66.6627 110.828 66.7139 112.524C66.8425 115.452 65.9369 117.757 65.4686 120.335C64.8503 123.375 65.3221 126.536 66.8013 129.263C68.471 132.106 70.9906 134.354 74.0052 135.69C76.6398 136.853 79.1508 137.151 81.6722 137.717C84.8 138.435 87.8466 139.469 90.7645 140.805C92.1514 141.386 93.4558 142.147 94.6443 143.069C96.0939 144.341 97.4095 145.758 98.5704 147.298L109.515 160.811C110.906 162.632 112.456 164.327 114.146 165.874C115.991 167.362 118.017 168.609 120.177 169.584C124.546 171.761 129.115 173.989 132.907 173.737C136.699 173.485 139.334 169.826 137.538 164.711C135.84 159.844 131.055 155.742 128.883 150.885C125.461 143.228 129.943 137.506 127.077 129.839C124.329 122.471 116.626 117.531 111.707 110.801C108.177 105.995 106.212 100.427 103.006 95.41C98.3749 88.2062 91.4797 82.6952 84.9963 79.9063C79.2991 77.471 73.0571 76.5937 66.9094 77.3644C64.563 77.6216 62.2526 78.059 60.5854 79.4638C58.8153 80.956 59.0417 83.7449 57.8891 85.726C56.6027 88.0415 54.0814 89.3382 52.584 91.5405Z" fill="#6C63FF"/>
<path opacity="0.5" d="M59.4534 81.1772C59.4534 81.1772 114.244 132.402 136.339 172.286" stroke="#535461" stroke-width="2" stroke-miterlimit="10"/>
<path opacity="0.5" d="M52.229 98.59C52.229 98.59 74.1236 94.3346 89.2775 111.403" stroke="#535461" stroke-width="2" stroke-miterlimit="10"/>
<path opacity="0.5" d="M67.7893 130.75C67.7893 130.75 91.9737 113.837 100.341 123.675" stroke="#535461" stroke-width="2" stroke-miterlimit="10"/>
<path opacity="0.5" d="M84.9345 79.8085C84.9345 79.8085 82.3874 92.7549 91.5518 113.903" stroke="#535461" stroke-width="2" stroke-miterlimit="10"/>
<path opacity="0.5" d="M127.062 130.035C127.062 130.035 124.921 138.525 107.714 132.284" stroke="#535461" stroke-width="2" stroke-miterlimit="10"/>
<path opacity="0.5" d="M109.598 159.73C109.598 159.73 120.1 147.592 115.325 141.633" stroke="#535461" stroke-width="2" stroke-miterlimit="10"/>
</g>
<path d="M42.2876 32.1241C39.7148 35.1651 37.3066 39.3743 39.2002 43.5268C42.8742 51.662 56.3506 47.6947 61.1617 55.2794C62.6025 57.5486 62.798 60.3221 62.4636 62.7971C61.8152 67.6392 59.4174 71.7505 57.7605 76.1758C56.1036 80.601 55.2443 85.9524 57.5804 90.6247C59.829 95.1477 64.5681 98.0035 69.158 99.1407C73.7479 100.278 78.3481 100.021 82.9329 100.17C88.3795 100.383 93.7876 101.18 99.0644 102.547C101.386 103.048 103.613 103.916 105.661 105.12C108.002 106.617 109.896 108.814 111.748 110.976L128.214 130.164C130.401 132.736 132.634 135.309 135.346 137.198C138.475 139.374 142.035 140.481 145.54 141.546C153.078 143.851 160.976 146.177 168.18 144.597C175.384 143.017 181.43 136.133 179.629 128.162C177.916 120.572 170.187 115.19 167.583 107.754C163.467 96.0378 173.63 85.1703 170.578 73.2479C167.656 61.8143 154.699 55.9174 147.495 46.2385C142.349 39.3022 140.322 30.6267 135.825 23.2479C129.346 12.617 118.047 5.56239 106.752 2.88667C95.4573 0.210947 84.1009 1.5025 73.5318 4.16793C69.0551 5.30511 64.5784 6.74074 61.028 9.58112C57.2562 12.6016 56.8188 17.1812 54.0711 20.8294C50.8859 25.0797 45.7558 28.0024 42.2876 32.1241Z" fill="#6C63FF"/>
<path d="M58.3162 12.7766C58.3162 12.7766 145.622 81.4707 174.998 141.191" stroke="#535461" stroke-width="2" stroke-miterlimit="10"/>
<path d="M39.478 43.9745C39.478 43.9745 81.8625 30.2459 105.11 54.0805" stroke="#535461" stroke-width="2" stroke-miterlimit="10"/>
<path d="M58.9285 92.827C58.9285 92.827 109.412 57.3222 122.173 71.1691" stroke="#535461" stroke-width="2" stroke-miterlimit="10"/>
<path d="M106.572 2.7323C106.572 2.7323 97.8706 25.0591 108.63 57.5126" stroke="#535461" stroke-width="2" stroke-miterlimit="10"/>
<path d="M170.403 73.6339C170.403 73.6339 163.812 88.4173 133.406 83.2459" stroke="#535461" stroke-width="2" stroke-miterlimit="10"/>
<path d="M128.616 128.399C128.616 128.399 152.013 104.996 144.86 96.4958" stroke="#535461" stroke-width="2" stroke-miterlimit="10"/>
<path opacity="0.1" d="M250.5 393.233C388.571 393.233 500.5 383.77 500.5 372.095C500.5 360.421 388.571 350.957 250.5 350.957C112.429 350.957 0.5 360.421 0.5 372.095C0.5 383.77 112.429 393.233 250.5 393.233Z" fill="#6C63FF"/>
<path d="M444.583 205.434C443.517 202.316 441.979 198.364 440.764 197.432C440.69 197.373 440.609 197.323 440.523 197.283H440.373V193.429L437.502 193.887C437.046 192.495 436.702 191.068 436.473 189.621C436.75 189.898 437.102 190.087 437.486 190.164C437.869 190.241 438.267 190.202 438.629 190.053C438.583 189.976 438.542 189.894 438.5 189.812L438.629 189.755C438.177 188.958 437.938 188.058 437.934 187.141C437.957 186.304 438.091 185.473 438.331 184.671C438.845 182.896 439.715 181.239 440.198 179.454C440.507 178.305 440.653 177.118 440.631 175.929C440.647 173.913 440.188 171.921 439.293 170.114C439.066 169.592 438.713 169.136 438.264 168.787C437.86 168.562 437.444 168.36 437.018 168.179C436.305 167.699 435.69 167.086 435.207 166.373C433.168 163.889 430.437 162.066 427.36 161.135C426.558 160.836 425.688 160.766 424.849 160.934C422.919 161.449 422.22 163.842 420.655 165.097C419.276 166.204 417.383 166.317 415.649 166.687C413.915 167.058 412.17 167.794 410.987 169.131C410.171 170.064 409.726 171.263 409.736 172.502C409.689 173.08 409.791 173.662 410.032 174.189C410.274 174.717 410.647 175.175 411.115 175.517C411.65 175.867 412.255 176.095 412.887 176.184C413.52 176.273 414.164 176.221 414.774 176.032C414.297 177.679 414.166 179.407 414.388 181.107C414.611 182.807 415.182 184.443 416.067 185.912C416.952 187.38 418.13 188.651 419.529 189.642C420.928 190.634 422.517 191.326 424.196 191.674L424.53 192.276C425.564 194.202 426.349 196.251 426.866 198.374C424.221 199.871 421.335 201.276 419.59 201.41C419.52 202.092 419.393 202.766 419.209 203.427C418.802 205.083 418.018 206.624 416.92 207.929C414.548 210.595 403.881 230.745 403.881 230.745C403.881 230.745 403.546 231.548 402.996 232.917C396.373 233.73 385.562 234.903 382.547 234.301L370.712 223.042C370.712 223.042 366.884 225.965 367.218 229.515L365.114 227.488C365.114 227.488 353.855 236.081 371.633 241.71L398.684 244.849C396.111 252.624 393.703 261.675 394.449 266.6H394.67C395.187 266.599 395.703 266.56 396.214 266.481L396.167 267.356L393.548 314.022C393.548 314.022 392.957 322.615 400.958 326.464C400.958 326.464 410.735 355.202 406.886 358.465C406.886 358.465 407.344 358.706 408.116 359.041L400.073 366.168C400.073 366.168 394.145 367.649 390.888 367.351C390.316 367.272 389.734 367.407 389.255 367.73C388.776 368.053 388.432 368.541 388.289 369.101C388.289 369.162 388.289 369.224 388.259 369.286V369.363C388.259 369.425 388.259 369.486 388.259 369.553C388.259 369.62 388.259 369.6 388.259 369.625C388.259 369.651 388.259 369.733 388.259 369.79C388.259 369.847 388.259 369.836 388.259 369.857C388.259 369.878 388.259 369.986 388.295 370.047V370.119C388.312 370.188 388.334 370.257 388.361 370.325L388.387 370.387C388.413 370.454 388.444 370.521 388.48 370.588V370.634C388.516 370.701 388.557 370.763 388.598 370.829L388.634 370.886C388.682 370.955 388.735 371.023 388.794 371.092L388.84 371.143C388.902 371.215 388.969 371.282 389.036 371.349L389.066 371.375L389.288 371.565L389.334 371.601C389.416 371.668 389.509 371.73 389.602 371.792L389.663 371.833C389.761 371.895 389.864 371.956 389.972 372.013H390.018L390.353 372.178H390.399L390.79 372.332L390.873 372.363L391.3 372.502H391.372L391.84 372.625H391.876L392.39 372.728H392.493L393.049 372.811H393.157L393.785 372.872C395.004 372.965 396.646 373.001 398.545 372.991C398.545 372.991 398.545 373.037 398.545 373.063C398.545 373.088 398.545 373.171 398.545 373.227V373.294C398.545 373.356 398.545 373.423 398.581 373.485V373.557C398.598 373.625 398.62 373.694 398.648 373.762L398.673 373.824C398.699 373.891 398.73 373.958 398.766 374.025V374.071C398.802 374.138 398.843 374.2 398.884 374.267L398.92 374.323C398.968 374.392 399.021 374.461 399.08 374.529L399.126 374.581C399.188 374.653 399.255 374.72 399.322 374.786L399.353 374.812L399.574 375.003L399.62 375.039C399.702 375.105 399.795 375.167 399.888 375.229L399.955 375.27C400.052 375.332 400.155 375.394 400.263 375.45H400.31L400.644 375.615H400.69L401.081 375.769L401.164 375.8L401.591 375.939H401.663L402.131 376.063H402.167L402.682 376.165H402.785L403.34 376.248H403.448L404.076 376.31C411.795 376.901 436.37 375.126 436.37 375.126V375.059V374.972C436.612 373.824 437.795 367.155 433.597 362.226C433.72 362.097 433.844 361.958 433.957 361.814C433.957 361.814 430.7 356.185 432.475 354.405C434.25 352.624 423.588 321.812 423.588 321.812C423.588 321.812 417.959 312.926 421.216 302.851C424.473 292.776 420.918 281.815 420.918 281.815C420.918 281.815 428.688 279.505 428.847 269.939C428.847 269.651 428.847 269.353 428.847 269.049C429.018 269.073 429.19 269.084 429.362 269.08C429.471 269.088 429.581 269.088 429.691 269.08C429.691 269.08 428.209 263.749 429.99 259.895C431.77 256.041 435.619 259.597 439.174 243.897C441.747 232.536 444.011 219.466 445.066 213.106C445.522 210.547 445.356 207.915 444.583 205.434ZM376.964 238.767L374.262 236.194C375.158 236.565 376.151 236.93 377.262 237.28L387.451 238.464C382.902 238.875 378.677 239.107 376.964 238.767Z" fill="url(#paint0_linear)"/>
<path d="M402.754 237.265C402.754 237.265 381.796 240.177 377.427 239.323L365.762 228.229C365.762 228.229 354.699 236.673 372.168 242.199L404.791 246.012L402.754 237.265Z" fill="#FDC2CC"/>
<path opacity="0.05" d="M402.754 237.265C402.754 237.265 381.796 240.177 377.427 239.323L365.762 228.229C365.762 228.229 354.699 236.673 372.168 242.199L404.791 246.012L402.754 237.265Z" fill="black"/>
<path d="M410.323 355.434L400.135 364.459C400.135 364.459 394.315 365.915 391.109 365.622C387.904 365.329 386.452 370.572 394.022 371.154C401.591 371.735 425.75 369.991 425.75 369.991C425.75 369.991 428.081 360.677 421.093 355.434H410.323Z" fill="#47465A"/>
<path opacity="0.05" d="M410.323 355.434L400.135 364.459C400.135 364.459 394.315 365.915 391.109 365.622C387.904 365.329 386.452 370.572 394.022 371.154C401.591 371.735 425.75 369.991 425.75 369.991C425.75 369.991 428.081 360.677 421.093 355.434H410.323Z" fill="black"/>
<path opacity="0.3" d="M426.115 365.962C426.098 367.023 425.975 368.079 425.75 369.116C425.75 369.116 401.565 370.86 394.022 370.279C390.384 370.001 388.835 368.643 388.557 367.341C388.228 368.833 389.545 370.809 394.022 371.154C401.591 371.735 425.75 369.991 425.75 369.991C426.033 368.667 426.156 367.314 426.115 365.962Z" fill="white"/>
<path d="M422.256 190.388C422.256 190.388 428.662 199.413 426.331 205.526C424 211.639 438.557 199.12 438.557 199.12C438.557 199.12 433.9 190.969 436.226 182.237L422.256 190.388Z" fill="#FDC2CC"/>
<path d="M420.511 358.928L410.323 367.963C410.323 367.963 404.503 369.42 401.298 369.126C398.092 368.833 396.636 374.066 404.21 374.653C411.784 375.239 435.938 373.49 435.938 373.49C435.938 373.49 438.269 364.176 431.281 358.933L420.511 358.928Z" fill="#47465A"/>
<path d="M423.424 356.89C421.906 358.763 419.765 359.463 417.527 359.591C412.438 359.833 406.834 356.89 406.834 356.89C410.616 353.689 401.015 325.45 401.015 325.45C393.157 321.668 393.739 313.224 393.739 313.224L396.311 267.392L396.955 255.881L405.105 250.931L411.532 255.861L417.625 260.538C418.021 262.026 418.276 263.547 418.386 265.082C419.091 275.78 410.637 278.296 410.637 278.296C410.637 278.296 414.131 289.066 410.93 298.961C407.73 308.856 413.261 317.588 413.261 317.588C413.261 317.588 423.743 347.859 422.009 349.609C420.275 351.359 423.424 356.89 423.424 356.89Z" fill="#565171"/>
<path opacity="0.05" d="M423.424 356.89C421.906 358.763 419.765 359.463 417.527 359.591C412.438 359.833 406.834 356.89 406.834 356.89C410.616 353.689 401.015 325.45 401.015 325.45C393.157 321.668 393.739 313.224 393.739 313.224L396.311 267.392L396.955 255.881L405.105 250.931L411.532 255.861L417.625 260.538C418.021 262.026 418.276 263.547 418.386 265.082C419.091 275.78 410.637 278.296 410.637 278.296C410.637 278.296 414.131 289.066 410.93 298.961C407.73 308.856 413.261 317.588 413.261 317.588C413.261 317.588 423.743 347.859 422.009 349.609C420.275 351.359 423.424 356.89 423.424 356.89Z" fill="black"/>
<path d="M433.612 360.384C428.662 366.497 417.023 360.384 417.023 360.384C417.26 360.169 417.437 359.896 417.537 359.591C419.673 353.787 410.333 326.037 410.333 326.037C402.476 322.255 401.586 313.229 401.586 313.229L399.527 266.584L399.26 260.543L411.507 255.866L415.268 254.43L427.787 264.022C428.329 266.005 428.599 268.053 428.59 270.109C428.436 279.52 420.82 281.79 420.82 281.79C420.82 281.79 424.314 292.559 421.113 302.455C417.913 312.35 423.444 321.082 423.444 321.082C423.444 321.082 433.926 351.353 432.192 353.103C430.458 354.852 433.612 360.384 433.612 360.384Z" fill="#565171"/>
<path opacity="0.1" d="M428.59 270.119C426.074 269.759 420.98 266.729 418.36 265.082C417.362 264.454 416.724 264.053 416.724 264.053C416.724 264.053 414.105 256.777 407.117 262.308C404.845 264.152 402.279 265.601 399.527 266.595C398.475 266.967 397.389 267.239 396.286 267.408L396.929 255.897L405.08 250.947L411.506 255.876L415.268 254.441L427.787 264.022C428.33 266.009 428.6 268.06 428.59 270.119Z" fill="black"/>
<path d="M444.346 214.279C443.317 220.526 441.083 233.364 438.557 244.53C435.063 259.967 431.281 256.463 429.532 260.25C427.782 264.037 429.238 269.275 429.238 269.275C426.326 269.569 416.719 263.162 416.719 263.162C416.719 263.162 414.1 255.887 407.112 261.418C400.124 266.95 394.593 266.656 394.593 266.656C393.137 257.049 403.906 231.435 403.906 231.435C403.906 231.435 414.398 211.639 416.704 209.02C417.783 207.737 418.552 206.223 418.952 204.595C419.131 203.946 419.255 203.283 419.323 202.614C423.105 202.321 432.423 195.925 432.423 195.925L439.699 194.762V198.544C439.784 198.582 439.863 198.63 439.936 198.688C441.135 199.604 442.643 203.489 443.687 206.55C444.539 209.033 444.766 211.688 444.346 214.279Z" fill="#F68080"/>
<path opacity="0.1" d="M438.557 202.326C438.557 202.326 430.988 196.213 419.637 216.008C408.285 235.803 405.666 232.598 405.666 232.598C405.666 232.598 407.997 241.345 406.829 243.079C406.829 243.079 414.686 242.498 417.599 243.079C420.511 243.661 438.557 220.953 438.557 220.953C438.557 220.953 447.876 208.146 438.557 202.326Z" fill="black"/>
<path opacity="0.1" d="M438.269 201.158C438.269 201.158 430.7 195.07 419.348 214.84C407.997 234.609 405.383 231.435 405.383 231.435C405.383 231.435 414.398 241.33 417.311 241.896C420.223 242.462 438.269 219.769 438.269 219.769C438.269 219.769 447.577 206.983 438.269 201.158Z" fill="black"/>
<path opacity="0.1" d="M406.562 241.185C406.68 239.029 405.867 235.237 405.399 233.272C407.169 233.04 408.285 232.886 408.285 232.886L410.344 241.633L406.562 241.185Z" fill="black"/>
<path opacity="0.1" d="M436.519 182.819L422.549 190.954C423.137 191.813 423.68 192.703 424.175 193.619C424.981 193.784 425.802 193.866 426.624 193.866C430.355 193.866 432.094 189.951 434.343 187.316C434.199 185.217 435.897 185.165 436.519 182.819Z" fill="black"/>
<path d="M426.336 193.3C433.088 193.3 438.562 187.827 438.562 181.074C438.562 174.322 433.088 168.848 426.336 168.848C419.584 168.848 414.11 174.322 414.11 181.074C414.11 187.827 419.584 193.3 426.336 193.3Z" fill="#FDC2CC"/>
<path opacity="0.1" d="M410.868 171.184C412.102 169.919 413.706 169.078 415.448 168.781C417.146 168.416 419.009 168.303 420.367 167.238C421.911 166.008 422.59 163.672 424.484 163.152C425.307 162.987 426.161 163.054 426.948 163.348C429.974 164.26 432.661 166.051 434.667 168.493C435.14 169.193 435.742 169.796 436.442 170.269C436.861 170.446 437.269 170.645 437.667 170.865C438.103 171.21 438.446 171.657 438.665 172.167C440.03 174.923 440.345 178.083 439.55 181.054C439.077 182.808 438.223 184.434 437.718 186.199C437.214 187.964 437.085 189.925 438.012 191.484C437.116 191.942 435.984 191.366 435.439 190.532C434.893 189.698 434.708 188.669 434.41 187.707C433.827 185.814 432.736 184.118 431.255 182.803C430.339 181.99 428.683 181.445 428.06 182.495C427.813 182.901 427.828 183.416 427.617 183.838C427.201 184.661 425.997 184.826 425.199 184.352C424.43 183.821 423.89 183.02 423.686 182.109C422.487 178.054 420.444 175.502 416.107 177.236C414.491 177.884 412.587 178.321 411.033 177.21C408.985 175.744 409.402 172.841 410.868 171.184Z" fill="black"/>
<path d="M410.868 170.886C412.102 169.621 413.706 168.78 415.448 168.483C417.146 168.118 419.009 168.004 420.367 166.939C421.911 165.71 422.59 163.373 424.484 162.854C425.307 162.688 426.161 162.756 426.948 163.049C429.974 163.962 432.661 165.753 434.667 168.195C435.14 168.895 435.742 169.497 436.442 169.97C436.861 170.147 437.269 170.347 437.667 170.567C438.103 170.911 438.446 171.359 438.665 171.869C440.03 174.625 440.345 177.784 439.55 180.755C439.077 182.51 438.223 184.136 437.718 185.901C437.214 187.666 437.085 189.626 438.012 191.186C437.116 191.643 435.984 191.067 435.439 190.234C434.893 189.4 434.708 188.371 434.41 187.409C433.827 185.516 432.736 183.82 431.255 182.505C430.339 181.692 428.683 181.146 428.06 182.196C427.813 182.603 427.828 183.117 427.617 183.539C427.201 184.362 425.997 184.527 425.199 184.054C424.43 183.523 423.89 182.722 423.686 181.81C422.487 177.755 420.444 175.203 416.107 176.937C414.491 177.586 412.587 178.023 411.033 176.912C408.985 175.45 409.402 172.553 410.868 170.886Z" fill="#B96B6B"/>
<path opacity="0.05" d="M439.962 198.672H434.044C434.044 198.672 422.4 204.492 422.112 204.204C421.916 204.008 420.115 204.343 418.973 204.585C419.151 203.936 419.275 203.273 419.343 202.604C423.125 202.31 432.444 195.914 432.444 195.914L439.72 194.751V198.533C439.806 198.57 439.887 198.616 439.962 198.672Z" fill="black"/>
<path opacity="0.3" d="M436.303 369.456C436.286 370.516 436.164 371.573 435.938 372.61C435.938 372.61 411.753 374.354 404.21 373.773C400.572 373.495 399.023 372.136 398.745 370.835C398.416 372.327 399.733 374.303 404.21 374.648C411.779 375.229 435.938 373.485 435.938 373.485C436.221 372.161 436.344 370.808 436.303 369.456Z" fill="white"/>
<g opacity="0.05">
<path opacity="0.05" d="M404.354 261.125C400.428 264.212 396.955 265.504 394.675 266.018C394.675 266.234 394.716 266.451 394.747 266.656C394.747 266.656 400.279 266.95 407.267 261.418C408.349 260.491 409.628 259.822 411.007 259.463C409.5 258.737 407.308 258.784 404.354 261.125Z" fill="black"/>
<path opacity="0.05" d="M443.857 206.545C442.828 203.458 441.284 199.599 440.106 198.683C440.033 198.625 439.954 198.577 439.869 198.539C439.869 198.539 437.461 198.621 437.538 198.683C438.737 199.599 439.9 203.19 440.945 206.252C441.786 208.734 442.004 211.385 441.578 213.97C440.548 220.217 438.315 233.055 435.789 244.221C432.295 259.658 428.513 256.154 426.763 259.941C425.333 263.029 426.048 267.114 426.357 268.488C427.602 269.003 428.683 269.327 429.382 269.255C429.382 269.255 427.926 264.017 429.676 260.229C431.425 256.442 435.207 259.936 438.701 244.51C441.228 233.349 443.451 220.505 444.49 214.258C444.915 211.674 444.698 209.025 443.857 206.545Z" fill="black"/>
</g>
<path d="M146.744 368.375C146.744 368.375 140.054 368.838 135.886 361.686C135.078 360.241 134.123 358.884 133.036 357.636C131.701 355.448 131.007 352.929 131.034 350.365C131.266 345.055 125.724 315.951 125.724 315.951C125.724 315.951 126.418 304.863 120.871 297.942C117.223 293.383 111.975 280.313 108.81 271.915C109.023 272.105 109.279 272.239 109.556 272.306L109.428 271.581L109.556 271.612L107.941 262.602C105.559 259.862 103.552 256.819 101.972 253.551L102.342 253.473L107.246 252.444C107.246 252.444 115.216 241.124 115.705 235.546L116.354 235.577H117.27C127.412 235.356 139.349 236.735 139.349 236.735C139.349 236.699 139.293 236.555 139.231 236.328C138.921 235.207 138.682 234.068 138.516 232.917L138.974 232.886L143.512 232.582C143.512 232.582 159.217 215.03 153.443 211.794C147.67 208.557 141.665 226.346 141.665 226.346L139.725 226.701L139.21 226.798C139.262 226.721 139.313 226.649 139.375 226.577C139.437 226.505 113.734 225.425 109.808 219.188C109.808 219.188 98.488 210.178 98.0301 204.173C97.7831 200.988 95.7866 199.295 93.9599 198.41C92.5628 197.744 91.0161 197.455 89.4729 197.571L84.1729 197.937L84.5485 198.606H84.3993C84.0671 197.844 83.7886 197.06 83.5657 196.259H83.6738C83.6378 196.095 83.6017 195.93 83.5709 195.745C85.195 195.361 86.7257 194.656 88.0724 193.67C89.419 192.685 90.5542 191.439 91.4106 190.007C92.2671 188.574 92.8275 186.985 93.0585 185.332C93.2896 183.679 93.1866 181.997 92.7558 180.385C93.2694 180.451 93.7902 180.438 94.2995 180.344C96.2445 179.942 97.6287 177.967 97.6802 175.98C97.6802 175.852 97.6802 175.723 97.6802 175.594C97.6802 175.594 97.6802 175.543 97.6802 175.517C97.6611 174.522 97.4203 173.544 96.9752 172.654C96.5301 171.764 95.892 170.984 95.1073 170.372C94.0474 169.492 92.7867 168.864 91.8244 167.886C90.6821 166.718 90.0595 165.154 89.1693 163.77C87.6851 161.493 85.4828 159.778 82.9122 158.897C80.9981 158.249 78.6568 158.176 77.1903 159.566C76.4339 160.281 75.9965 161.305 75.132 161.907C73.9125 162.777 72.2556 162.519 70.7634 162.694C68.0568 163.013 65.6795 164.943 64.4858 167.397C63.7537 168.948 63.4009 170.65 63.4566 172.363C63.4403 173.539 63.5805 174.712 63.8734 175.852C64.1616 176.989 64.5887 178.085 64.9026 179.212C65.5509 181.558 65.7001 184.028 66.4462 186.349C66.9517 188.066 67.9587 189.592 69.3381 190.733L69.1168 191.69C68.9727 191.721 65.376 192.493 62.8855 197.926C60.9198 202.208 54.2717 206.633 51.349 208.418C50.8037 208.752 50.3304 209.191 49.9567 209.709C49.583 210.228 49.3164 210.816 49.1724 211.439C48.8917 212.698 48.7673 213.988 48.8019 215.277C48.7505 218.061 49.3165 221.91 51.5703 226.793C56.6541 237.882 60.3487 242.745 60.3487 242.745C60.3487 242.745 60.6317 246.141 60.6471 249.722C60.6471 252.388 60.4516 255.043 59.8856 256.37C59.407 257.492 59.2578 260.358 59.2681 263.626C59.2681 269.898 59.8856 278.085 59.8856 278.085C59.8856 278.085 61.6505 278.419 64.388 278.821L66.0912 308.763C66.3051 312.389 65.1418 315.962 62.834 318.766C61.6348 320.237 60.2513 321.548 58.7175 322.667C53.8652 326.13 43.4711 362.627 43.4711 362.627C43.4711 362.627 43.9856 362.658 44.8192 362.725L41.6238 371.637C41.6238 371.637 54.3849 381.414 62.1548 378.744C62.9847 378.473 63.8553 378.35 64.7276 378.378C66.2713 378.378 69.5388 377.169 67.7121 375.569C64.3931 372.667 60.4156 368.272 57.7553 365.216C58.0062 365.337 58.247 365.478 58.4757 365.638V365.566L58.5837 365.638C58.5837 365.638 58.6095 365.277 58.6661 364.696L58.5529 364.66C58.7896 362.257 59.5305 356.216 61.0073 355.475C62.8546 354.549 76.4802 327.529 76.4802 327.529L90.1058 292.421C90.1058 292.421 100.963 311.13 110.199 314.362V322.167C110.199 322.167 115.283 345.266 117.131 347.808C118.978 350.35 117.131 360.513 117.131 360.513C117.496 360.931 117.914 361.299 118.376 361.609L116.899 369.98C116.899 369.98 127.525 369.517 145.54 375.064C145.586 375.075 152.517 372.08 146.744 368.375ZM104.241 247.556L101.992 248.117L101.55 248.23C101.503 247.952 101.472 247.787 101.472 247.787C100.958 248.019 100.405 248.153 99.8413 248.184C99.0442 245.658 98.584 243.039 98.4726 240.393C98.4726 240.393 97.1656 235.057 97.0936 230.745C97.1193 229.063 97.3714 227.596 98.0095 226.768L98.7607 226.829L99.2753 227.344L99.3113 227.38L99.5789 227.622L99.8567 227.874L99.9031 227.915L100.207 228.177L100.258 228.224L100.567 228.486L100.598 228.512L100.942 228.795L101.02 228.857L101.385 229.15H101.416L101.776 229.433L101.858 229.495L102.255 229.798L102.337 229.86L102.718 230.138L102.785 230.184L103.217 230.493L103.32 230.565L103.773 230.879L103.814 230.905L104.256 231.198L104.364 231.27L104.843 231.574L104.946 231.635L105.393 231.908L105.476 231.96L105.99 232.258L106.114 232.33L106.628 232.628H106.67L107.184 232.901L107.313 232.968L107.858 233.241L107.971 233.292L108.486 233.529L108.584 233.575L109.155 233.822L109.294 233.879L109.891 234.116C106.134 238.124 104.241 247.556 104.241 247.556Z" fill="url(#paint1_linear)"/>
<path d="M47.2737 357.219L42.9874 369.173C42.9874 369.173 54.7246 378.172 62.3504 376.31C63.499 376.024 64.6694 375.835 65.8494 375.744C67.4291 375.625 70.146 374.478 68.4685 373.011C63.0553 368.277 55.8412 359.483 55.8412 359.483L47.2737 357.219Z" fill="#4F4D59"/>
<path d="M118.53 356.087L116.503 367.588C116.503 367.588 126.876 367.135 144.464 372.548C144.464 372.548 151.231 369.615 145.591 366.008C145.591 366.008 139.051 366.461 134.991 359.468C130.931 352.475 128.451 353.381 128.451 353.381L118.53 356.087Z" fill="#4F4D59"/>
<path d="M64.8614 272.656L66.8476 307.647C67.0604 311.376 65.8233 315.043 63.3949 317.881C62.2971 319.184 61.0462 320.35 59.6695 321.354C54.9355 324.735 44.7883 360.363 44.7883 360.363C44.7883 360.363 56.2888 361.037 59.4431 363.296C59.4431 363.296 60.1171 354.276 61.9232 353.376C63.7294 352.475 77.0308 326.104 77.0308 326.104L90.3425 291.808C90.3425 291.808 100.942 310.075 109.963 313.229V320.896C109.963 320.896 114.923 343.445 116.729 345.925C118.535 348.405 116.729 358.326 116.729 358.326C116.729 358.326 121.916 364.866 133.864 357.873C133.864 357.873 130.031 353.587 130.262 348.4C130.494 343.213 125.075 314.804 125.075 314.804C125.075 314.804 125.75 303.998 120.341 297.216C114.933 290.434 105.908 264.536 105.908 264.536L99.7024 251.184L64.8614 272.656Z" fill="#787C9C"/>
<g opacity="0.1">
<path opacity="0.1" d="M46.9341 360.374C46.9341 360.374 57.0812 324.745 61.8152 321.365C63.2705 320.301 64.5862 319.058 65.731 317.665C68.0475 314.865 69.212 311.289 68.9882 307.662L67.002 272.672L100.248 252.161L99.795 251.189L64.9643 272.656L66.9505 307.646C67.1827 311.274 66.0255 314.854 63.7139 317.66C62.5691 319.052 61.2535 320.295 59.7981 321.36C55.0642 324.74 44.917 360.368 44.917 360.368C44.917 360.368 56.4175 361.043 59.5717 363.301C59.5717 363.301 59.5974 362.952 59.654 362.38C55.2082 360.862 46.9341 360.374 46.9341 360.374Z" fill="black"/>
<path opacity="0.1" d="M118.87 358.346C118.87 358.346 120.676 348.426 118.87 345.945C117.064 343.465 112.083 320.912 112.083 320.912V313.245C103.083 310.091 92.4831 291.808 92.4831 291.808L91.6958 293.866C94.7523 298.714 102.908 310.749 110.071 313.255V320.922C110.071 320.922 115.031 343.47 116.837 345.95C118.643 348.431 116.837 358.351 116.837 358.351C116.837 358.351 119.354 361.516 124.911 361.089C120.769 360.76 118.87 358.346 118.87 358.346Z" fill="black"/>
</g>
<path d="M142.442 233.421L138.012 233.714L135.676 233.868V228.208L138.763 227.653L140.662 227.308C140.662 227.308 146.523 209.946 152.162 213.101C157.802 216.255 142.442 233.421 142.442 233.421Z" fill="#714B4F"/>
<path d="M71.4016 186.971C71.4016 186.971 68.4686 198.245 67.5681 205.238C66.6676 212.231 88.5365 206.591 88.5365 206.591C88.5365 206.591 80.1954 196.444 84.9345 191.031L71.4016 186.971Z" fill="#714B4F"/>
<path d="M95.1023 233.874L95.5551 238.16L88.5674 237.707L81.5487 231.604L74.561 212L70.0534 205.012L66.6676 200.731L68.0209 195.544C68.0209 195.544 68.6384 196.058 69.6829 196.882C73.1151 199.511 81.1731 204.971 87.0597 203.463C87.3321 203.395 87.6001 203.311 87.8624 203.211L96.646 218.313L95.1023 233.874Z" fill="#E6E6F0"/>
<path opacity="0.1" d="M69.8217 194.186C69.8217 194.186 66.2198 194.86 63.7345 200.273C61.8254 204.436 55.3883 208.727 52.5119 210.492C51.9635 210.827 51.4879 211.269 51.1132 211.792C50.7384 212.314 50.4722 212.906 50.3301 213.533C49.7487 216.106 49.5274 220.891 52.6868 227.786C57.6472 238.592 61.2543 243.347 61.2543 243.347C61.2543 243.347 62.1548 254.153 60.8015 257.327C59.4482 260.502 60.8015 277.848 60.8015 277.848C60.8015 277.848 84.4713 282.356 92.3698 277.848C100.268 273.341 99.1363 255.974 99.1363 255.974C99.1363 255.974 106.577 271.74 109.283 272.209L107.704 263.415C107.704 263.415 98.9099 253.942 98.4417 241.767C98.4417 241.767 95.7351 230.719 97.9888 227.786C97.9888 227.786 136.097 230.946 138.351 228.239C138.351 228.239 113.323 227.112 109.489 221.035C109.489 221.035 98.4417 212.242 97.9888 206.381C97.9228 205.281 97.5777 204.217 96.9863 203.288C96.3948 202.359 95.5763 201.596 94.6082 201.07C93.0743 200.198 91.3143 199.806 89.5552 199.943L84.461 200.293C84.461 200.293 93.2549 215.854 92.8021 217.881C92.3493 219.909 93.2549 236.369 93.2549 236.369C93.2549 236.369 83.1283 214.48 78.6362 212C74.1441 209.519 68.9418 199.336 68.9418 199.336L69.8423 194.191" fill="black"/>
<path opacity="0.1" d="M95.1023 233.874L95.5551 238.16L88.5674 237.707L81.5487 231.604L74.561 212L70.0534 205.012L66.6676 200.731L68.0209 195.544C68.0209 195.544 68.6384 196.058 69.6829 196.882L69.3742 198.672C69.3742 198.672 74.561 208.856 79.0685 211.336C83.5761 213.816 93.7233 235.69 93.7233 235.69C93.7233 235.69 92.8228 219.224 93.2705 217.202C93.5792 215.823 89.6274 208.223 87.0597 203.473C87.3321 203.405 87.6001 203.321 87.8624 203.221L96.646 218.313L95.1023 233.874Z" fill="black"/>
<path opacity="0.1" d="M138.001 233.719L135.665 233.874V228.213L138.753 227.658C137.667 229.093 137.703 231.604 138.001 233.719Z" fill="black"/>
<path d="M69.8217 193.527C69.8217 193.527 66.2198 194.201 63.7345 199.614C61.8254 203.777 55.3883 208.068 52.5119 209.833C51.9635 210.169 51.4879 210.611 51.1132 211.133C50.7384 211.655 50.4722 212.247 50.3301 212.874C49.7487 215.447 49.5274 220.233 52.6868 227.128C57.6472 237.933 61.2543 242.688 61.2543 242.688C61.2543 242.688 62.1548 253.494 60.8015 256.669C59.4482 259.844 60.8015 277.189 60.8015 277.189C60.8015 277.189 84.4713 281.697 92.3698 277.189C100.268 272.682 99.1363 255.274 99.1363 255.274C99.1363 255.274 106.577 271.061 109.283 271.509L107.704 262.715C107.704 262.715 98.9099 253.242 98.4417 241.067C98.4417 241.067 95.7351 230.019 97.9888 227.086C97.9888 227.086 106.783 236.56 116.703 236.349C126.624 236.138 138.351 237.475 138.351 237.475C138.351 237.475 136.097 230.272 138.351 227.555C138.351 227.555 113.323 226.428 109.489 220.351C109.489 220.351 98.4417 211.557 97.9888 205.696C97.9228 204.597 97.5777 203.532 96.9863 202.603C96.3948 201.674 95.5763 200.911 94.6082 200.386C93.0743 199.514 91.3143 199.121 89.5552 199.259L84.461 199.609C84.461 199.609 93.2755 215.138 92.8227 217.197C92.3698 219.255 93.2755 235.685 93.2755 235.685C93.2755 235.685 83.1283 213.806 78.6362 211.325C74.1441 208.845 68.9212 198.672 68.9212 198.672L69.8217 193.527Z" fill="#787C9C"/>
<path opacity="0.1" d="M64.8615 217.197C64.8615 217.197 70.2747 235.464 73.429 237.717C76.5832 239.971 95.7507 251.472 101.39 248.765C101.39 248.765 102.744 255.532 100.716 257.106C100.716 257.106 79.6912 256.283 79.5214 256.206C79.5214 256.206 65.7671 254.4 63.5134 247.638C61.2596 240.877 58.553 229.371 58.553 229.371L64.8615 217.197Z" fill="black"/>
<path d="M93.7283 237.82C94.1631 237.82 94.5156 237.316 94.5156 236.693C94.5156 236.071 94.1631 235.567 93.7283 235.567C93.2935 235.567 92.941 236.071 92.941 236.693C92.941 237.316 93.2935 237.82 93.7283 237.82Z" fill="#BA7855"/>
<path d="M95.9821 245.714C96.4169 245.714 96.7694 245.209 96.7694 244.587C96.7694 243.964 96.4169 243.46 95.9821 243.46C95.5473 243.46 95.1948 243.964 95.1948 244.587C95.1948 245.209 95.5473 245.714 95.9821 245.714Z" fill="#BA7855"/>
<g opacity="0.1">
<path opacity="0.1" d="M62.3813 276.942C62.3813 276.942 61.028 259.581 62.3813 256.422C63.7346 253.262 62.8341 242.441 62.8341 242.441C62.8341 242.441 59.2322 237.707 54.2666 226.881C51.1072 219.986 51.3336 215.2 51.9099 212.627C52.0526 212 52.3196 211.408 52.6953 210.885C53.0709 210.363 53.5475 209.921 54.0968 209.586C56.9732 207.821 63.4104 203.53 65.3143 199.367C66.7139 196.316 68.4686 194.767 69.7395 194L69.827 193.486C69.827 193.486 66.2251 194.16 63.7397 199.573C61.8307 203.736 55.3935 208.027 52.5223 209.792C51.9729 210.127 51.4963 210.569 51.1207 211.091C50.7451 211.613 50.478 212.206 50.3354 212.833C49.7539 215.406 49.5327 220.191 52.6921 227.086C57.6525 237.892 61.2595 242.647 61.2595 242.647C61.2595 242.647 62.16 253.453 60.8067 256.628C59.4534 259.802 60.8067 277.148 60.8067 277.148C60.8067 277.148 77.7204 280.369 87.7235 278.646C77.6072 279.845 62.3813 276.942 62.3813 276.942Z" fill="black"/>
<path opacity="0.1" d="M92.8228 217.197C92.514 218.586 92.8228 226.757 93.0749 231.759C94.1658 233.987 94.8501 235.458 94.8501 235.458C94.8501 235.458 93.9496 218.992 94.3973 216.97C94.8244 215.041 86.9053 200.89 86.118 199.475L84.4766 199.588C84.4766 199.588 93.2756 215.138 92.8228 217.197Z" fill="black"/>
<path opacity="0.1" d="M118.304 236.127C108.383 236.354 99.5892 226.865 99.5892 226.865C99.3233 227.234 99.1295 227.649 99.0181 228.09C101.591 230.513 108.795 236.518 116.724 236.323C126.645 236.096 138.372 237.45 138.372 237.45C138.372 237.45 138.325 237.301 138.253 237.043C131.626 236.368 124.966 236.062 118.304 236.127Z" fill="black"/>
<path opacity="0.1" d="M100.716 255.068C100.716 255.068 100.809 256.478 100.757 258.593C103.104 263.224 107.375 271.21 109.284 271.529L108.949 269.677C105.656 265.565 100.716 255.068 100.716 255.068Z" fill="black"/>
</g>
<path d="M107.03 252.815L102.239 253.844L98.4623 254.641L100.49 248.981L101.9 248.626L104.097 248.081C104.097 248.081 107.256 232.294 113.57 233.426C119.884 234.558 107.03 252.815 107.03 252.815Z" fill="#714B4F"/>
<path opacity="0.1" d="M102.239 253.823L98.4623 254.621L100.49 248.961L101.9 248.606C102.215 250.326 102.329 252.077 102.239 253.823Z" fill="black"/>
<path d="M64.8615 216.734C64.8615 216.734 70.2747 235.001 73.429 237.254C76.5832 239.508 95.7507 251.009 101.39 248.302C101.39 248.302 102.744 255.068 100.716 256.643C100.716 256.643 79.6912 255.82 79.5214 255.743C79.5214 255.743 65.7671 253.936 63.5134 247.175C61.2596 240.414 58.553 228.908 58.553 228.908L64.8615 216.734Z" fill="#787C9C"/>
<path opacity="0.1" d="M71.6279 187.424C71.6279 187.424 71.1699 189.189 70.5576 191.757C71.8086 194.119 73.8028 196.004 76.232 197.12C78.6613 198.236 81.3905 198.521 83.998 197.931C83.4577 195.616 83.576 193.3 85.1609 191.463L71.6279 187.424Z" fill="black"/>
<path d="M81.1011 197.792C87.8249 197.792 93.2756 192.342 93.2756 185.618C93.2756 178.894 87.8249 173.443 81.1011 173.443C74.3772 173.443 68.9265 178.894 68.9265 185.618C68.9265 192.342 74.3772 197.792 81.1011 197.792Z" fill="#714B4F"/>
<path opacity="0.1" d="M91.67 182.268C92.554 182.514 93.4798 182.57 94.3869 182.433C96.2857 182.042 97.639 180.112 97.6853 178.172C97.6663 177.201 97.4311 176.245 96.9967 175.376C96.5624 174.506 95.9398 173.744 95.1742 173.145C94.1451 172.286 92.9102 171.673 91.9685 170.716C90.8519 169.579 90.2447 168.046 89.3957 166.708C87.9411 164.483 85.7837 162.809 83.2673 161.953C81.3994 161.32 79.1147 161.248 77.6791 162.607C76.9433 163.302 76.5111 164.305 75.6878 164.892C74.494 165.741 72.8782 165.488 71.422 165.658C70.1021 165.861 68.8525 166.386 67.7837 167.187C66.7148 167.987 65.8596 169.039 65.2936 170.248C64.1878 172.698 63.9766 175.459 64.6967 178.049C64.9797 179.155 65.3914 180.231 65.695 181.332C66.3279 183.627 66.4771 186.035 67.2078 188.299C67.9384 190.563 69.4461 192.776 71.7256 193.445C71.5453 190.906 72.0462 188.366 73.1767 186.086C73.3638 185.59 73.7313 185.182 74.2058 184.944C74.6126 184.84 75.0391 184.84 75.4459 184.944C78.3007 185.367 81.2137 184.777 83.6789 183.277C84.5434 182.762 85.8915 180.956 86.8177 180.776C88.0012 180.565 90.4351 181.99 91.67 182.268Z" fill="black"/>
<path d="M91.6701 181.815C92.554 182.061 93.4798 182.117 94.3869 181.98C96.2857 181.589 97.639 179.659 97.6853 177.719C97.6663 176.748 97.4311 175.792 96.9967 174.923C96.5624 174.053 95.9398 173.291 95.1742 172.692C94.1451 171.833 92.9102 171.221 91.9685 170.263C90.8519 169.126 90.2447 167.593 89.3957 166.255C87.9411 164.03 85.7837 162.357 83.2673 161.5C81.3994 160.868 79.1148 160.796 77.6791 162.154C76.9433 162.849 76.5111 163.852 75.6878 164.439C74.494 165.288 72.8783 165.036 71.422 165.205C70.1021 165.408 68.8525 165.933 67.7837 166.734C66.7148 167.534 65.8596 168.586 65.2936 169.795C64.1928 172.239 63.9816 174.992 64.6967 177.575C64.9797 178.682 65.3914 179.757 65.695 180.858C66.3279 183.153 66.4771 185.561 67.2078 187.825C67.9385 190.09 69.4461 192.302 71.7256 192.971C71.5453 190.433 72.0462 187.893 73.1767 185.613C73.3638 185.116 73.7313 184.708 74.2058 184.471C74.6126 184.366 75.0391 184.366 75.4459 184.471C78.3007 184.894 81.2137 184.304 83.6789 182.803C84.5434 182.289 85.8915 180.483 86.8177 180.303C88.0012 180.112 90.4351 181.543 91.6701 181.815Z" fill="#503F43"/>
<path d="M382.861 55.4904H116.961V373.49H382.861V55.4904Z" fill="#FAFBFC"/>
<path d="M382.861 55.4904H116.961V66.2704H382.861V55.4904Z" fill="#7983A6"/>
<path d="M152.893 185.073H346.929" stroke="#7983A6" stroke-miterlimit="10"/>
<g opacity="0.5">
<path opacity="0.5" d="M152.893 163.96H155.98" stroke="#7983A6" stroke-miterlimit="10"/>
<path opacity="0.5" d="M162.042 163.96H340.811" stroke="#7983A6" stroke-miterlimit="10" stroke-dasharray="11.78 11.78"/>
<path opacity="0.5" d="M343.842 163.96H346.929" stroke="#7983A6" stroke-miterlimit="10"/>
</g>
<g opacity="0.5">
<path opacity="0.5" d="M152.893 142.853H155.98" stroke="#7983A6" stroke-miterlimit="10"/>
<path opacity="0.5" d="M162.042 142.853H340.811" stroke="#7983A6" stroke-miterlimit="10" stroke-dasharray="11.78 11.78"/>
<path opacity="0.5" d="M343.842 142.853H346.929" stroke="#7983A6" stroke-miterlimit="10"/>
</g>
<g opacity="0.5">
<path opacity="0.5" d="M152.893 121.74H155.98" stroke="#7983A6" stroke-miterlimit="10"/>
<path opacity="0.5" d="M162.042 121.74H340.811" stroke="#7983A6" stroke-miterlimit="10" stroke-dasharray="11.78 11.78"/>
<path opacity="0.5" d="M343.842 121.74H346.929" stroke="#7983A6" stroke-miterlimit="10"/>
</g>
<g opacity="0.5">
<path opacity="0.5" d="M152.893 100.633H155.98" stroke="#7983A6" stroke-miterlimit="10"/>
<path opacity="0.5" d="M162.042 100.633H340.811" stroke="#7983A6" stroke-miterlimit="10" stroke-dasharray="11.78 11.78"/>
<path opacity="0.5" d="M343.842 100.633H346.929" stroke="#7983A6" stroke-miterlimit="10"/>
</g>
<g opacity="0.3">
<path opacity="0.3" d="M176.475 142.853H162.551V185.073H176.475V142.853Z" fill="#6C63FF"/>
</g>
<path d="M215.325 121.514H201.401V185.294H215.325V121.514Z" fill="#6C63FF"/>
<g opacity="0.3">
<path opacity="0.3" d="M254.179 163.734H240.255V185.515H254.179V163.734Z" fill="#6C63FF"/>
</g>
<path d="M293.029 99.9589H279.104V185.299H293.029V99.9589Z" fill="#6C63FF"/>
<g opacity="0.3">
<path opacity="0.3" d="M331.878 120.619H317.954V185.073H331.878V120.619Z" fill="#6C63FF"/>
</g>
<path d="M169.513 198.317C171.497 198.317 173.105 196.709 173.105 194.726C173.105 192.742 171.497 191.134 169.513 191.134C167.529 191.134 165.921 192.742 165.921 194.726C165.921 196.709 167.529 198.317 169.513 198.317Z" fill="#6C63FF"/>
<path d="M208.589 198.317C210.572 198.317 212.181 196.709 212.181 194.726C212.181 192.742 210.572 191.134 208.589 191.134C206.605 191.134 204.997 192.742 204.997 194.726C204.997 196.709 206.605 198.317 208.589 198.317Z" fill="#6C63FF"/>
<path d="M247.665 198.317C249.648 198.317 251.256 196.709 251.256 194.726C251.256 192.742 249.648 191.134 247.665 191.134C245.681 191.134 244.073 192.742 244.073 194.726C244.073 196.709 245.681 198.317 247.665 198.317Z" fill="#6C63FF"/>
<path d="M286.741 198.317C288.724 198.317 290.332 196.709 290.332 194.726C290.332 192.742 288.724 191.134 286.741 191.134C284.757 191.134 283.149 192.742 283.149 194.726C283.149 196.709 284.757 198.317 286.741 198.317Z" fill="#6C63FF"/>
<path d="M325.816 198.317C327.8 198.317 329.408 196.709 329.408 194.726C329.408 192.742 327.8 191.134 325.816 191.134C323.833 191.134 322.225 192.742 322.225 194.726C322.225 196.709 323.833 198.317 325.816 198.317Z" fill="#6C63FF"/>
<path d="M152.893 320.716H346.929" stroke="#7983A6" stroke-miterlimit="10"/>
<g opacity="0.5">
<path opacity="0.5" d="M152.893 299.604H155.98" stroke="#7983A6" stroke-miterlimit="10"/>
<path opacity="0.5" d="M162.042 299.604H340.811" stroke="#7983A6" stroke-miterlimit="10" stroke-dasharray="11.78 11.78"/>
<path opacity="0.5" d="M343.842 299.604H346.929" stroke="#7983A6" stroke-miterlimit="10"/>
</g>
<g opacity="0.5">
<path opacity="0.5" d="M152.893 278.496H155.98" stroke="#7983A6" stroke-miterlimit="10"/>
<path opacity="0.5" d="M162.042 278.496H340.811" stroke="#7983A6" stroke-miterlimit="10" stroke-dasharray="11.78 11.78"/>
<path opacity="0.5" d="M343.842 278.496H346.929" stroke="#7983A6" stroke-miterlimit="10"/>
</g>
<g opacity="0.5">
<path opacity="0.5" d="M152.893 257.384H155.98" stroke="#7983A6" stroke-miterlimit="10"/>
<path opacity="0.5" d="M162.042 257.384H340.811" stroke="#7983A6" stroke-miterlimit="10" stroke-dasharray="11.78 11.78"/>
<path opacity="0.5" d="M343.842 257.384H346.929" stroke="#7983A6" stroke-miterlimit="10"/>
</g>
<g opacity="0.5">
<path opacity="0.5" d="M152.893 236.277H155.98" stroke="#7983A6" stroke-miterlimit="10"/>
<path opacity="0.5" d="M162.042 236.277H340.811" stroke="#7983A6" stroke-miterlimit="10" stroke-dasharray="11.78 11.78"/>
<path opacity="0.5" d="M343.842 236.277H346.929" stroke="#7983A6" stroke-miterlimit="10"/>
</g>
<path d="M176.475 278.496H162.551V320.716H176.475V278.496Z" fill="#6C63FF"/>
<path d="M215.325 278.27H201.401V320.938H215.325V278.27Z" fill="#6C63FF"/>
<path d="M254.179 299.383H240.255V321.164H254.179V299.383Z" fill="#6C63FF"/>
<path d="M293.029 235.603H279.104V320.943H293.029V235.603Z" fill="#6C63FF"/>
<path d="M384.878 185.253H370.954V249.707H384.878V185.253Z" fill="#6C63FF"/>
<g opacity="0.7">
<path opacity="0.7" d="M169.513 333.961C171.497 333.961 173.105 332.353 173.105 330.369C173.105 328.386 171.497 326.778 169.513 326.778C167.529 326.778 165.921 328.386 165.921 330.369C165.921 332.353 167.529 333.961 169.513 333.961Z" fill="#6C63FF"/>
</g>
<g opacity="0.7">
<path opacity="0.7" d="M208.589 333.961C210.572 333.961 212.181 332.353 212.181 330.369C212.181 328.386 210.572 326.778 208.589 326.778C206.605 326.778 204.997 328.386 204.997 330.369C204.997 332.353 206.605 333.961 208.589 333.961Z" fill="#6C63FF"/>
</g>
<g opacity="0.7">
<path opacity="0.7" d="M247.665 333.961C249.648 333.961 251.256 332.353 251.256 330.369C251.256 328.386 249.648 326.778 247.665 326.778C245.681 326.778 244.073 328.386 244.073 330.369C244.073 332.353 245.681 333.961 247.665 333.961Z" fill="#6C63FF"/>
</g>
<g opacity="0.7">
<path opacity="0.7" d="M286.741 333.961C288.724 333.961 290.332 332.353 290.332 330.369C290.332 328.386 288.724 326.778 286.741 326.778C284.757 326.778 283.149 328.386 283.149 330.369C283.149 332.353 284.757 333.961 286.741 333.961Z" fill="#6C63FF"/>
</g>
<g opacity="0.7">
<path opacity="0.7" d="M325.816 333.961C327.8 333.961 329.408 332.353 329.408 330.369C329.408 328.386 327.8 326.778 325.816 326.778C323.833 326.778 322.225 328.386 322.225 330.369C322.225 332.353 323.833 333.961 325.816 333.961Z" fill="#6C63FF"/>
</g>
<path d="M97.2634 372.327C98.2065 371.558 98.8937 370.521 99.2342 369.353C99.4914 368.169 98.9872 366.754 97.8551 366.322C96.5893 365.838 95.236 366.713 94.212 367.603C93.1881 368.493 92.0097 369.502 90.6667 369.311C91.357 368.686 91.8734 367.892 92.1655 367.007C92.4577 366.123 92.5157 365.177 92.3339 364.264C92.2758 363.885 92.1157 363.529 91.8708 363.235C91.1658 362.483 89.8949 362.807 89.051 363.399C86.3753 365.282 85.6291 368.915 85.6137 372.188C85.3461 371.01 85.5725 369.78 85.5622 368.586C85.552 367.392 85.2226 366.013 84.2038 365.385C83.572 365.046 82.8625 364.877 82.1456 364.897C80.9415 364.85 79.6036 364.974 78.7803 365.854C77.7512 366.945 78.0239 368.782 78.9141 369.97C79.8043 371.159 81.1525 371.925 82.3977 372.759C83.3957 373.352 84.247 374.163 84.8882 375.131C84.9636 375.265 85.0256 375.407 85.0734 375.553H92.6118C94.3007 374.692 95.8655 373.607 97.2634 372.327Z" fill="#6C63FF"/>
<path d="M463.632 366.152C464.575 365.383 465.262 364.346 465.602 363.178C465.86 361.994 465.355 360.579 464.223 360.147C462.958 359.663 461.604 360.538 460.58 361.428C459.556 362.319 458.378 363.327 457.035 363.137C457.725 362.511 458.242 361.717 458.534 360.832C458.826 359.948 458.884 359.003 458.702 358.089C458.644 357.71 458.484 357.354 458.239 357.06C457.534 356.308 456.263 356.633 455.419 357.224C452.743 359.108 451.997 362.74 451.982 366.013C451.714 364.835 451.941 363.605 451.93 362.411C451.92 361.217 451.591 359.838 450.572 359.211C449.94 358.871 449.231 358.703 448.514 358.722C447.31 358.675 445.972 358.799 445.149 359.679C444.119 360.77 444.392 362.607 445.282 363.795C446.173 364.984 447.521 365.751 448.766 366.584C449.764 367.178 450.615 367.988 451.256 368.956C451.332 369.091 451.394 369.232 451.442 369.378H458.98C460.669 368.518 462.234 367.432 463.632 366.152Z" fill="#6C63FF"/>
<path d="M410.323 241.618L406.562 241.18L377.746 237.831C360.256 232.304 371.319 223.886 371.319 223.886L382.964 234.949C386.324 235.623 399.497 234.054 405.399 233.297C407.169 233.066 408.285 232.911 408.285 232.911L410.323 241.618Z" fill="#FDC2CC"/>
<path d="M438.557 201.76C438.557 201.76 430.988 195.647 419.637 215.442C408.285 235.237 405.666 232.031 405.666 232.031C405.666 232.031 407.997 240.779 406.829 242.513C406.829 242.513 414.686 241.932 417.599 242.513C420.511 243.095 438.557 220.387 438.557 220.387C438.557 220.387 447.876 207.564 438.557 201.76Z" fill="#F68080"/>
</g>
<defs>
<linearGradient id="paint0_linear" x1="403.52" y1="376.665" x2="403.52" y2="160.842" gradientUnits="userSpaceOnUse">
<stop stop-color="#808080" stop-opacity="0.25"/>
<stop offset="0.54" stop-color="#808080" stop-opacity="0.12"/>
<stop offset="1" stop-color="#808080" stop-opacity="0.1"/>
</linearGradient>
<linearGradient id="paint1_linear" x1="34420.1" y1="177820" x2="34420.1" y2="83124.9" gradientUnits="userSpaceOnUse">
<stop stop-color="#808080" stop-opacity="0.25"/>
<stop offset="0.54" stop-color="#808080" stop-opacity="0.12"/>
<stop offset="1" stop-color="#808080" stop-opacity="0.1"/>
</linearGradient>
<clipPath id="clip0">
<rect width="500" height="393.234" fill="white" transform="translate(0.5)"/>
</clipPath>
</defs>
</svg>
