<svg width="28" height="32" viewBox="0 0 28 32" fill="none" xmlns="http://www.w3.org/2000/svg">
<path d="M20.4648 14.072C20.4648 14.072 20.1999 11.7947 17.7638 11.7947C15.3275 11.7947 13.6595 12.1123 13.6595 13.463C13.6595 14.8136 18.3996 14.8136 20.2003 15.3431C22.0011 15.8725 23.5898 17.2496 22.7953 19.6859C22.0009 22.1222 19.5646 22.3869 15.8044 22.3869C12.0441 22.3869 11.1965 19.262 11.1965 18.0441H13.3149C13.3149 18.0441 13.05 19.9506 15.5391 20.2683C18.0283 20.5859 20.4084 20.7648 20.7294 18.8385C21.153 16.2962 12.6792 17.5675 11.9376 15.0783C11.3112 12.9751 11.6726 10.206 15.9097 9.7821C20.1467 9.35818 22.477 11.2289 22.477 14.0191L20.4648 14.072Z" fill="#153C55"/>
<path d="M0.000235734 24.0002L4.68365 26.704C7.03682 28.0626 9.97823 26.3644 9.97823 23.6472V18.909V10.1889H8.06934V23.1163C8.06934 24.6001 6.4631 25.5278 5.17778 24.7855L1.9089 22.8984V9.10186L13.8569 2.2043L25.8049 9.10186V22.8984L13.8569 29.7959L10.415 27.8088L8.16741 28.7152L13.8567 32L27.7135 23.9995V8.00006L13.8569 0L0 8.00052V24.0002H0.000235734Z" fill="#153C55"/>
</svg>
