<svg width="35" height="35" viewBox="0 0 35 35" fill="none" xmlns="http://www.w3.org/2000/svg">
<circle cx="17.5" cy="17.5" r="17.5" fill="#EDF8FF"/>
<g clip-path="url(#clip0)">
<path d="M23.6631 28.4671L21.2664 30.8542C20.8929 31.2262 20.2589 31.1974 19.853 30.7899L7.7361 18.6278C7.33021 18.2204 7.30385 17.5863 7.67735 17.2143L10.7514 14.1525L23.6044 27.0536C24.0102 27.461 24.0366 28.0951 23.6631 28.4671ZM8.13031 17.6689C7.98674 17.8119 7.99688 18.056 8.15291 18.2126L20.2698 30.3748C20.4258 30.5314 20.6699 30.5425 20.8135 30.3995L23.2101 28.0124C23.3537 27.8694 23.3436 27.6253 23.1875 27.4687L10.7875 15.0223L8.13031 17.6689Z" fill="#153C55"/>
<path d="M23.6063 8.72147L14.4012 17.95L10.5571 14.1161L19.7621 4.88756C20.1669 4.48169 20.8077 4.46204 21.1904 4.84376L23.6464 7.29316C24.0291 7.67488 24.0111 8.31561 23.6063 8.72147ZM14.4259 17.0711L23.1792 8.29549C23.3348 8.13947 23.3417 7.89283 23.1946 7.7461L20.7386 5.29669C20.5915 5.14995 20.3449 5.15751 20.1892 5.31354L11.436 14.0891L14.4259 17.0711Z" fill="#153C55"/>
<path d="M9.66382 18.3518L8.75859 19.26C8.63366 19.3853 8.43798 19.3932 8.32187 19.2775C8.20576 19.1618 8.21302 18.9662 8.33796 18.8408L9.24319 17.9326C9.36813 17.8073 9.56361 17.7994 9.67971 17.9151C9.79582 18.0308 9.78876 18.2264 9.66382 18.3518Z" fill="#153C55"/>
<path d="M11.664 19.0602L10.0762 20.6562C9.95096 20.7821 9.75881 20.7943 9.64734 20.6834C9.53596 20.5727 9.54713 20.3805 9.67236 20.2546L11.2602 18.6586C11.3854 18.5327 11.5776 18.5205 11.689 18.6313C11.8004 18.7421 11.7893 18.9343 11.664 19.0602Z" fill="#153C55"/>
<path d="M12.3315 21.1813L11.4263 22.0895C11.3014 22.2149 11.1057 22.2227 10.9897 22.1071C10.8736 21.9914 10.8807 21.7957 11.0057 21.6704L11.9109 20.7622C12.0358 20.6368 12.2314 20.6291 12.3475 20.7448C12.4635 20.8604 12.4565 21.056 12.3315 21.1813Z" fill="#153C55"/>
<path d="M14.3317 21.8897L12.7439 23.4857C12.6187 23.6116 12.4266 23.6239 12.3151 23.5131C12.2036 23.4022 12.2148 23.2101 12.3401 23.0842L13.9279 21.4882C14.0531 21.3623 14.2453 21.3501 14.3567 21.4609C14.4682 21.5718 14.457 21.7638 14.3317 21.8897Z" fill="#153C55"/>
<path d="M14.9993 24.011L14.0941 24.9192C13.9692 25.0445 13.7735 25.0524 13.6574 24.9367C13.5413 24.8209 13.5484 24.6253 13.6734 24.4999L14.5786 23.5917C14.7035 23.4663 14.8991 23.4586 15.0152 23.5743C15.1313 23.69 15.1243 23.8856 14.9993 24.011Z" fill="#153C55"/>
<path d="M16.9995 24.7194L15.4117 26.3154C15.2865 26.4413 15.0943 26.4535 14.9828 26.3426C14.8714 26.2318 14.8826 26.0397 15.0079 25.9138L16.5957 24.3178C16.7209 24.1919 16.913 24.1796 17.0245 24.2905C17.1359 24.4013 17.1248 24.5935 16.9995 24.7194Z" fill="#153C55"/>
<path d="M17.6671 26.8405L16.7618 27.7487C16.6369 27.8741 16.4412 27.8819 16.3251 27.7662C16.2091 27.6506 16.2163 27.4549 16.3412 27.3296L17.2464 26.4213C17.3714 26.296 17.5669 26.2883 17.6829 26.4039C17.7991 26.5196 17.792 26.7151 17.6671 26.8405V26.8405Z" fill="#153C55"/>
<path d="M19.6673 27.5489L18.0794 29.1449C17.9542 29.2708 17.762 29.283 17.6507 29.1723C17.5392 29.0614 17.5504 28.8693 17.6756 28.7434L19.2634 27.1473C19.3887 27.0215 19.5808 27.0093 19.6923 27.1201C19.8037 27.2308 19.7925 27.423 19.6673 27.5489V27.5489Z" fill="#153C55"/>
<path d="M20.3348 29.67L19.4296 30.5783C19.3046 30.7036 19.109 30.7115 18.9929 30.5958C18.8768 30.4801 18.884 30.2845 19.0089 30.1591L19.9142 29.2509C20.0391 29.1255 20.2347 29.1178 20.3508 29.2335C20.4669 29.3492 20.4597 29.5447 20.3348 29.67V29.67Z" fill="#153C55"/>
<path d="M20.1284 6.78017C20.0123 6.89587 19.8168 6.88805 19.6919 6.7627L18.7867 5.85447C18.6617 5.72912 18.6545 5.53354 18.7706 5.41783C18.8867 5.30213 19.0824 5.30996 19.2073 5.43531L20.1125 6.34354C20.2375 6.46889 20.2445 6.66447 20.1284 6.78017Z" fill="#153C55"/>
<path d="M19.4699 8.89357C19.3585 9.00441 19.1664 8.99211 19.0412 8.86623L17.4533 7.27019C17.3281 7.14431 17.3168 6.95224 17.4283 6.8414C17.5398 6.73056 17.7319 6.74277 17.8572 6.86865L19.445 8.46468C19.5702 8.59056 19.5814 8.78273 19.4699 8.89357V8.89357Z" fill="#153C55"/>
<path d="M17.4607 9.60971C17.3446 9.72541 17.149 9.71768 17.0241 9.59233L16.1188 8.68411C15.9939 8.55876 15.9867 8.36308 16.1029 8.24737C16.219 8.13167 16.4145 8.1396 16.5395 8.26495L17.4447 9.17318C17.5696 9.29853 17.5768 9.49401 17.4607 9.60971Z" fill="#153C55"/>
<path d="M16.8022 11.7231C16.6908 11.8339 16.4986 11.8217 16.3734 11.6959L14.7855 10.0998C14.6603 9.97395 14.6491 9.78179 14.7606 9.67095C14.8721 9.56011 15.0641 9.57241 15.1894 9.69829L16.7772 11.2943C16.9025 11.4202 16.9137 11.6123 16.8022 11.7231Z" fill="#153C55"/>
<path d="M14.7929 12.4394C14.6769 12.555 14.4813 12.5472 14.3564 12.4219L13.4511 11.5137C13.3262 11.3883 13.319 11.1926 13.435 11.077C13.5511 10.9613 13.7468 10.9692 13.8718 11.0945L14.777 12.0027C14.9019 12.1281 14.909 12.3237 14.7929 12.4394Z" fill="#153C55"/>
<path d="M14.1344 14.5527C14.023 14.6636 13.8309 14.6513 13.7057 14.5254L12.1178 12.9294C11.9926 12.8035 11.9813 12.6114 12.0928 12.5006C12.2043 12.3897 12.3964 12.402 12.5217 12.5278L14.1095 14.1239C14.2347 14.2497 14.2459 14.4419 14.1344 14.5527Z" fill="#153C55"/>
</g>
<defs>
<clipPath id="clip0">
<rect width="19.4444" height="19.4444" fill="white" transform="matrix(0.685994 -0.727607 0.685994 0.727607 7 17.8889)"/>
</clipPath>
</defs>
</svg>
