<svg width="37" height="30" viewBox="0 0 37 30" fill="none" xmlns="http://www.w3.org/2000/svg">
<path d="M31.384 17.821C30.8078 18.0389 30.8311 18.0428 30.5262 17.4876C30.137 16.7803 29.9299 16.0366 29.912 15.2278C29.8972 14.5337 30.0872 13.8885 30.3262 13.2556C30.5169 12.7523 30.2688 12.5747 29.8329 12.5289C29.5157 12.4964 29.1885 12.4995 28.8705 12.5321C28.0438 12.6166 27.9624 12.6879 27.7429 13.4906C27.6126 13.9668 27.5087 14.4468 27.2923 14.8989C26.7588 16.0117 26.1523 17.0835 25.5304 18.1475C25.4187 18.3391 25.3264 18.5453 25.169 18.709C24.7184 18.0343 24.5486 17.289 24.5106 16.5073C24.4726 15.7356 24.7091 15.0183 24.9689 14.3087C25.0565 14.0699 24.9837 13.9217 24.7773 13.8186C24.6858 13.7728 24.5835 13.7302 24.4834 13.7224C23.953 13.6805 23.4241 13.6867 22.9068 13.8317C22.6741 13.896 22.5221 14.0264 22.4702 14.2877C22.3694 14.7988 22.212 15.2951 21.9994 15.7728C21.41 17.0958 20.8245 18.4212 20.2359 19.745C19.7241 20.8951 19.22 22.0482 18.6135 23.1526C18.5709 23.2309 18.5352 23.3667 18.4282 23.3395C18.3196 23.3123 18.3576 23.179 18.353 23.0874C18.3181 22.436 18.4957 21.8148 18.6469 21.1929C18.8865 20.2087 19.1486 19.2293 19.403 18.2482C19.4759 17.9667 19.3534 17.7775 19.1199 17.6425C18.7842 17.4494 18.4499 17.4401 18.0862 17.7107C18.1359 17.3106 18.1575 16.9593 18.1405 16.608C18.1017 15.8248 17.7387 15.3153 17.1068 15.1973C16.6453 15.1112 16.2087 15.2454 15.7961 15.4408C14.8345 15.8961 14.0613 16.5824 13.4114 17.4153C13.3354 17.5122 13.2587 17.6014 13.1485 17.6611C11.9287 18.3257 10.7095 18.9903 9.4928 19.6611C9.35943 19.7356 9.27334 19.7146 9.17715 19.6115C8.56447 18.9546 7.85338 18.4126 7.14919 17.8627C6.16505 17.0935 5.14685 16.3645 4.29764 15.437C3.80133 14.8941 3.38719 14.2993 3.18012 13.5812C2.84198 12.4071 3.09485 11.3136 3.65787 10.2745C4.32406 9.04526 5.31206 8.09607 6.40159 7.25072C8.13178 5.90907 10.0294 4.84351 12.0294 3.96647C14.2691 2.98545 16.5926 2.3534 19.0672 2.44877C20.0475 2.48677 20.9989 2.65658 21.8722 3.13663C22.4903 3.47633 22.8998 3.96721 23.0153 4.68765C23.1511 5.53137 22.9486 6.31082 22.5741 7.04989C21.7373 8.70096 20.4073 9.87042 18.8353 10.7863C17.5262 11.5486 16.1141 12.0326 14.6196 12.2861C13.7937 12.4264 12.9647 12.511 12.1341 12.3846C11.181 12.2396 10.3 11.9209 9.64784 11.1531C9.57259 11.0647 9.47721 11.0034 9.34926 11.0654C9.21819 11.129 9.22828 11.2453 9.24068 11.357C9.24996 11.4338 9.27096 11.5113 9.29805 11.5843C9.47254 12.0551 9.79903 12.4102 10.1813 12.7204C11.1756 13.5293 12.3536 13.7666 13.5905 13.7907C14.8011 13.8147 15.993 13.6611 17.1726 13.3789C19.8333 12.743 22.0622 11.4378 23.6892 9.20119C24.6617 7.86421 25.2775 6.39075 25.2232 4.7048C25.1883 3.63538 24.8284 2.6908 24.049 1.92308C23.1223 1.01182 21.9722 0.553521 20.7384 0.278243C19.3641 -0.0273151 17.976 -0.070733 16.5739 0.0967787C15.354 0.242544 14.1621 0.49229 13.0019 0.891661C11.2267 1.50352 9.5121 2.25499 7.87112 3.16854C6.18984 4.10377 4.60542 5.17483 3.21575 6.5164C1.98579 7.70368 0.928771 9.01357 0.333165 10.6398C0.0788174 11.3362 -0.104206 12.052 0.0664229 12.805C0.285146 13.7744 0.762818 14.6135 1.39101 15.3704C2.34101 16.5166 3.50661 17.4193 4.70866 18.2816C5.67417 18.9749 6.68466 19.6062 7.61217 20.3514C7.87505 20.5624 7.87349 20.5624 7.56408 20.7245C7.2027 20.9129 6.8374 21.0944 6.48226 21.2952C5.04999 22.1049 3.66574 22.9828 2.53576 24.2027C1.97971 24.8038 1.60201 25.4785 1.42604 26.2276C2.34576 27.6018 3.44004 28.8488 4.67697 29.9368C6.78716 29.7724 8.40253 28.6743 9.59604 26.8581C10.1723 25.9809 10.4421 24.9883 10.5437 23.9413C10.6329 23.0185 10.5391 22.125 10.2676 21.2441C10.2204 21.089 10.0443 20.9347 10.1133 20.7982C10.1777 20.6725 10.3716 20.6089 10.5143 20.5267C11.0897 20.1925 11.6667 19.8629 12.2592 19.5225C12.2848 19.6497 12.2351 19.7241 12.2134 19.8047C11.8737 21.051 11.6372 22.3073 11.8955 23.6024C12.056 24.409 12.3236 25.1682 12.8323 25.8359C13.3557 26.523 14.5245 26.4447 14.999 25.8173C15.4496 25.2217 15.7482 24.5501 16.0592 23.8816C16.2298 23.5155 16.3864 23.1433 16.5493 22.7733C16.519 23.2185 16.5206 23.6528 16.5369 24.0855C16.5532 24.5121 16.6214 24.9332 16.8432 25.3101C17.1099 25.763 17.6117 25.8948 18.0778 25.6528C18.5695 25.3976 18.9046 24.9773 19.1651 24.5213C20.2826 22.5601 21.3194 20.557 22.1779 18.4654C22.3609 18.0211 22.5486 17.5774 22.7557 17.0834C22.7875 17.2455 22.8085 17.3448 22.8278 17.4441C23.0186 18.4406 23.3583 19.3836 23.85 20.27C23.9554 20.46 23.9438 20.5911 23.8104 20.7733C23.3575 21.3898 22.8612 21.9699 22.3718 22.5562C21.9608 23.0494 21.5211 23.521 21.1736 24.0638C20.8619 24.5524 21.041 25.0525 21.5599 25.1635C21.7196 25.1976 21.8879 25.2077 22.0516 25.2053C22.9582 25.1945 23.7949 24.9238 24.5744 24.4802C25.6236 23.8823 26.2456 23.006 26.2169 21.7582C26.2037 21.1905 26.0501 20.6453 25.8214 20.1249C25.771 20.0094 25.7686 19.9256 25.8439 19.8171C26.5705 18.7763 27.2126 17.6852 27.8028 16.5623C27.9075 16.3646 27.9811 16.145 28.1502 15.952C28.1727 16.0303 28.1905 16.0792 28.2006 16.1296C28.3883 17.0602 28.6411 17.9698 29.1157 18.8004C29.246 19.0277 29.1809 19.1432 29.001 19.2952C28.3813 19.8217 27.8587 20.4359 27.4484 21.1393C27.1289 21.6869 26.9102 22.2716 26.9125 22.913C26.9148 23.6264 27.4608 24.0467 28.1564 23.8792C28.8816 23.7055 29.5539 23.41 30.1572 22.9688C31.4717 22.0064 31.8571 20.9912 31.4454 19.5744C31.2841 19.0168 31.2871 19.0261 31.8463 18.857C33.0693 18.4879 34.3101 18.4724 35.5571 18.6756C35.6983 18.6988 35.8379 18.7252 35.9758 18.7554C36.0487 18.3127 36.1061 17.8644 36.1465 17.4107C34.5512 17.0207 32.9583 17.2231 31.384 17.821ZM5.54243 27.798C5.18804 27.9236 4.81969 27.9771 4.44273 27.9477C3.97352 27.9104 3.67576 27.5793 3.64547 27.0814C3.61133 26.5075 3.78122 25.9895 4.03245 25.4854C4.48919 24.5703 5.25617 23.9491 6.03873 23.3396C6.79948 22.7463 7.61692 22.2399 8.44357 21.7474C8.69406 21.5985 8.69792 21.6001 8.75529 21.8987C8.82973 22.2818 8.89645 22.6657 8.87159 23.0139C8.93683 25.1023 7.41994 27.1333 5.54243 27.798ZM16.9254 17.2673C16.7936 18.1475 16.5058 18.9858 16.1995 19.814C15.7822 20.9447 15.3759 22.0808 14.8509 23.1681C14.7306 23.4186 14.6042 23.6675 14.4096 23.8715C14.2259 24.0646 14.063 24.0421 13.9358 23.8063C13.6876 23.3456 13.7187 22.8331 13.6784 22.4608C13.69 20.5934 14.3166 19.0672 15.3488 17.6953C15.6373 17.313 16.0056 17.002 16.4935 16.8771C16.8246 16.7927 16.9773 16.9261 16.9254 17.2673ZM24.1532 22.7959C23.7995 23.407 23.29 23.8514 22.6649 24.1678C22.5982 24.2011 22.5122 24.26 22.4517 24.1817C22.3943 24.108 22.4866 24.0592 22.5284 24.0127C23.1496 23.3341 23.7631 22.6501 24.316 21.9141C24.3245 21.9025 24.3455 21.9009 24.3927 21.8808C24.3873 22.2213 24.3129 22.5206 24.1532 22.7959ZM28.4425 22.7696C28.3502 22.813 28.2432 22.8944 28.1533 22.8246C28.054 22.7479 28.0935 22.6121 28.1238 22.5082C28.265 22.0344 28.455 21.5807 28.717 21.1581C28.9372 20.8021 29.2103 20.4911 29.5103 20.2011C29.6313 20.0848 29.6856 20.0987 29.7267 20.2662C29.7694 20.4376 29.7732 20.609 29.7763 20.7835C29.7686 21.7381 29.2839 22.3733 28.4425 22.7696Z" fill="#153C55"/>
</svg>
