<svg width="20" height="20" viewBox="0 0 20 20" fill="none" xmlns="http://www.w3.org/2000/svg">
<path d="M10.0001 4.81482C7.14087 4.81482 4.81494 7.14075 4.81494 10C4.81494 12.8593 7.14087 15.1852 10.0001 15.1852C12.8594 15.1852 15.1853 12.8593 15.1853 10C15.1853 7.14075 12.8594 4.81482 10.0001 4.81482ZM10.0001 14.4444C7.54939 14.4444 5.55568 12.4507 5.55568 10C5.55568 7.54926 7.54939 5.55556 10.0001 5.55556C12.4509 5.55556 14.4446 7.54926 14.4446 10C14.4446 12.4507 12.4509 14.4444 10.0001 14.4444Z" fill="#8595A9"/>
<path d="M18.9704 7.77778H18.223C18.0322 7.06963 17.7519 6.39185 17.3859 5.75667L17.9141 5.22852C18.1085 5.03407 18.2156 4.77519 18.2156 4.50037C18.2156 4.22519 18.1085 3.96667 17.9141 3.77185L16.2278 2.08556C15.8389 1.69704 15.1607 1.6963 14.7711 2.08556L14.243 2.6137C13.6074 2.24815 12.93 1.96778 12.2222 1.77704V1.02963C12.2222 0.461852 11.7604 0 11.1926 0H8.80741C8.23963 0 7.77778 0.461852 7.77778 1.02963V1.77704C7.07 1.96778 6.39259 2.24815 5.75667 2.61407L5.22852 2.08593C4.83926 1.6963 4.16074 1.69704 3.77185 2.08593L2.08556 3.77222C1.89111 3.96667 1.78407 4.22556 1.78407 4.50074C1.78407 4.77556 1.89111 5.03407 2.08556 5.22889L2.6137 5.75704C2.24815 6.39185 1.96741 7.06963 1.77704 7.77778H1.02963C0.461852 7.77778 0 8.23963 0 8.80741V11.1922C0 11.7604 0.461852 12.2222 1.02963 12.2222H1.77704C1.96778 12.93 2.24815 13.6074 2.61407 14.2433L2.08593 14.7715C1.89148 14.9659 1.78444 15.2248 1.78444 15.4996C1.78444 15.7748 1.89148 16.0333 2.08593 16.2281L3.77222 17.9144C4.16111 18.3037 4.83963 18.3041 5.22889 17.9144L5.75704 17.3863C6.39296 17.7519 7.07037 18.0326 7.77815 18.2233V18.9707C7.77815 19.5385 8.24 20.0004 8.80778 20.0004H11.1926C11.7604 20.0004 12.2222 19.5385 12.2222 18.9707V18.2233C12.93 18.0326 13.6074 17.7522 14.2433 17.3863L14.7715 17.9144C15.1611 18.3041 15.8389 18.3033 16.2281 17.9144L17.9144 16.2281C18.1089 16.0337 18.2159 15.7748 18.2159 15.4996C18.2159 15.2248 18.1089 14.9663 17.9144 14.7715L17.3863 14.2433C17.7519 13.6074 18.0326 12.93 18.2233 12.2222H18.9707C19.5385 12.2222 20.0004 11.7604 20.0004 11.1926V8.80741C20 8.23963 19.5381 7.77778 18.9704 7.77778ZM19.2593 11.1926C19.2593 11.3519 19.1296 11.4815 18.9704 11.4815H17.64L17.5733 11.7678C17.3804 12.5963 17.0552 13.3826 16.6056 14.1052L16.45 14.3548L17.3904 15.2952C17.5033 15.4081 17.5033 15.5915 17.3904 15.7041L15.7041 17.3904C15.5915 17.503 15.4081 17.5037 15.2952 17.3904L14.3548 16.45L14.1052 16.6056C13.383 17.0552 12.5967 17.3807 11.7678 17.5733L11.4815 17.64V18.9704C11.4815 19.1296 11.3519 19.2593 11.1926 19.2593H8.80741C8.64815 19.2593 8.51852 19.1296 8.51852 18.9704V17.64L8.23222 17.5733C7.4037 17.3804 6.61741 17.0552 5.89481 16.6056L5.64518 16.45L4.70481 17.3904C4.59148 17.5037 4.40815 17.503 4.29593 17.3904L2.60963 15.7041C2.49667 15.5911 2.49667 15.4078 2.60963 15.2952L3.55 14.3548L3.39444 14.1052C2.94481 13.383 2.61926 12.5967 2.42667 11.7678L2.36 11.4815H1.02963C0.87037 11.4815 0.740741 11.3519 0.740741 11.1926V8.80741C0.740741 8.64815 0.87037 8.51852 1.02963 8.51852H2.36L2.42667 8.23222C2.61963 7.40333 2.94481 6.61704 3.39444 5.89481L3.55 5.64518L2.60963 4.70481C2.49667 4.59185 2.49667 4.40852 2.60963 4.29593L4.29593 2.60963C4.40852 2.49704 4.59185 2.4963 4.70481 2.60963L5.64518 3.55L5.89481 3.39444C6.61704 2.94481 7.40333 2.61926 8.23222 2.42667L8.51852 2.36V1.02963C8.51852 0.87037 8.64815 0.740741 8.80741 0.740741H11.1922C11.3519 0.740741 11.4815 0.87037 11.4815 1.02963V2.36L11.7678 2.42667C12.5963 2.61963 13.3826 2.94481 14.1052 3.39444L14.3548 3.55L15.2952 2.60963C15.4085 2.4963 15.5919 2.49704 15.7041 2.60963L17.3904 4.29593C17.5033 4.40889 17.5033 4.59222 17.3904 4.70481L16.45 5.64518L16.6056 5.89481C17.0552 6.61667 17.3807 7.40296 17.5733 8.23222L17.64 8.51852H18.9704C19.1296 8.51852 19.2593 8.64815 19.2593 8.80741V11.1926Z" fill="#8595A9"/>
<path d="M10.0001 6.29633C7.95787 6.29633 6.29639 7.95781 6.29639 10C6.29639 12.0423 7.95787 13.7037 10.0001 13.7037C12.0423 13.7037 13.7038 12.0423 13.7038 10C13.7038 7.95781 12.0423 6.29633 10.0001 6.29633ZM10.0001 12.963C8.36639 12.963 7.03713 11.6337 7.03713 10C7.03713 8.36633 8.36639 7.03707 10.0001 7.03707C11.6338 7.03707 12.9631 8.36633 12.9631 10C12.9631 11.6337 11.6338 12.963 10.0001 12.963Z" fill="#8595A9"/>
</svg>
