<svg width="20" height="20" viewBox="0 0 20 20" fill="none" xmlns="http://www.w3.org/2000/svg">
<path d="M19.9573 14.8459C19.7894 14.295 19.4875 13.7943 19.0785 13.3888C18.4271 12.7338 17.5407 12.3667 16.617 12.3692C16.1449 12.3694 15.6777 12.4652 15.2435 12.6507L11.8195 9.22669L16.3659 4.71456L17.4425 4.68413C17.5728 4.68018 17.6919 4.6098 17.7583 4.49771L19.2991 1.90684C19.3887 1.75733 19.3651 1.56606 19.2421 1.44269L17.9105 0.111121C17.7871 -0.0119543 17.5959 -0.0354946 17.4463 0.0540537L14.8555 1.59487C14.7434 1.66126 14.673 1.78039 14.6691 1.91065L14.6386 2.98352L10.1037 7.51087L6.99157 4.39879C7.31833 2.5042 6.04734 0.703434 4.15275 0.376675C3.2749 0.225256 2.37238 0.416147 1.63103 0.910065C1.45697 1.02777 1.41127 1.26426 1.52897 1.43832C1.56207 1.48726 1.60611 1.52782 1.65766 1.55683L3.3849 2.51937C3.76535 2.73622 3.84144 3.38299 3.53328 3.93084C3.22511 4.47868 2.63542 4.76022 2.25116 4.54716L0.649465 3.67974C0.465375 3.57844 0.234014 3.64559 0.132766 3.82968C0.0978601 3.89308 0.0817861 3.96512 0.0864466 4.03736C0.206812 5.95616 1.85992 7.41404 3.77872 7.29368C4.17514 7.26881 4.56439 7.17626 4.92958 7.02009L7.76013 9.85063L6.53508 11.0757L6.25735 10.8018C5.9499 10.5075 5.4653 10.5075 5.15785 10.8018L4.7774 11.1822C4.48754 11.4644 4.46919 11.924 4.73555 12.2284L0.234822 16.7216C-0.068777 17.0121 -0.0793821 17.4938 0.211139 17.7974C0.218843 17.8055 0.226738 17.8133 0.234822 17.8211L1.52074 19.107C1.81127 19.4106 2.29296 19.4212 2.59656 19.1307C2.60465 19.123 2.61254 19.1151 2.62025 19.107L7.12478 14.6063C7.42918 14.8726 7.88882 14.8543 8.17101 14.5644L8.55146 14.184C8.85506 13.8934 8.86567 13.4117 8.57515 13.1081C8.56744 13.1001 8.55955 13.0922 8.55146 13.0845L8.27374 12.8067L9.49118 11.5627L13.1815 15.253C12.8627 17.149 14.1412 18.9444 16.0372 19.2632C17.1602 19.452 18.3045 19.0797 19.1013 18.2662C19.2411 18.1092 19.2272 17.8688 19.0702 17.729C19.0297 17.6929 18.9819 17.6659 18.9301 17.6499L16.7882 17.0754C16.5783 17.0079 16.4121 16.846 16.3393 16.6379C16.228 16.3509 16.2146 16.0353 16.3012 15.74C16.461 15.1427 16.967 14.7166 17.3931 14.8307L19.5122 15.4014C19.5463 15.4063 19.5809 15.4063 19.615 15.4014C19.8251 15.404 19.9975 15.2357 20 15.0256C20.0007 14.9631 19.9861 14.9014 19.9573 14.8459ZM15.274 3.40582C15.3425 3.33686 15.3819 3.24427 15.3843 3.14711L15.4147 2.13131L17.5719 0.849194L18.485 1.76227L17.2295 3.91562L16.1947 3.95366C16.0975 3.95604 16.0049 3.99551 15.936 4.06399L11.2945 8.70167L10.6401 8.0473L15.274 3.40582ZM2.07996 18.5667L0.775014 17.2694L5.29857 12.7573L5.95294 13.4116L6.57688 14.0584L2.07996 18.5667ZM7.64595 14.0013L7.14375 13.4953L6.94972 13.3013L5.35183 11.692L5.73228 11.3116L8.01498 13.6247L7.64595 14.0013ZM7.71823 12.2665L7.06386 11.6121L8.28891 10.3871L8.94328 11.0414L7.71823 12.2665ZM17.5795 14.0965C17.4666 14.0661 17.3502 14.0507 17.2333 14.0508C16.4039 14.1178 15.7192 14.7263 15.5555 15.5422C15.4257 16.0003 15.4511 16.4886 15.6278 16.9308C15.7909 17.3564 16.1445 17.6805 16.5827 17.8058L17.998 18.1863C16.7074 18.9553 15.0378 18.5325 14.2687 17.242C13.9075 16.6359 13.796 15.9132 13.9576 15.2264C13.9866 15.0986 13.9478 14.965 13.8549 14.8726L5.27954 6.28962C5.1578 6.17525 4.97571 6.15366 4.83061 6.23636C4.43775 6.44366 4.00028 6.55209 3.5561 6.55213C2.41147 6.55313 1.38906 5.83651 0.99948 4.76022L1.86691 5.24339C2.06912 5.35662 2.29715 5.41559 2.52889 5.41459C3.23329 5.37402 3.86332 4.96271 4.18385 4.33411C4.70126 3.40962 4.49962 2.31012 3.73872 1.88402L2.63161 1.25627C4.04641 0.750895 5.60297 1.48816 6.10836 2.90291C6.28374 3.39397 6.31432 3.92508 6.19643 4.43303C6.16747 4.56077 6.20627 4.69445 6.29915 4.78685L14.8935 13.3774C15.011 13.495 15.1912 13.5228 15.3386 13.4459C15.7316 13.2387 16.169 13.1303 16.6132 13.1301C17.5766 13.1293 18.4683 13.6389 18.9567 14.4693L17.5795 14.0965Z" fill="#8595A9"/>
</svg>
