<svg width="25" height="25" viewBox="0 0 25 25" fill="none" xmlns="http://www.w3.org/2000/svg">
<g clip-path="url(#clip0)">
<path d="M20.686 7.78497L24.8569 3.61403C25.0463 3.42643 25.0479 3.12079 24.8602 2.93131C24.7735 2.84375 24.6566 2.79264 24.5335 2.78854L24.548 2.8175L22.2791 2.74026L22.2018 0.471346C22.1928 0.204869 21.9696 -0.00385898 21.7031 0.0051322C21.5799 0.0092959 21.463 0.0603465 21.3763 0.147905L17.2102 4.29471C17.1162 4.38933 17.0655 4.51864 17.0702 4.65194V5.13469C12.1169 1.72245 5.33539 2.97174 1.92315 7.92497C-1.48909 12.8782 -0.23986 19.6598 4.71343 23.072C9.66667 26.4843 16.4482 25.235 19.8605 20.2817C22.4233 16.5615 22.4233 11.6453 19.8605 7.92497H20.3432C20.4715 7.92569 20.5949 7.87531 20.686 7.78497ZM20.8308 14.109C20.8381 19.5959 16.3959 24.0498 10.909 24.057C5.42205 24.0643 0.968156 19.6221 0.960915 14.1352C0.953673 8.64825 5.39586 4.19436 10.8828 4.18712C13.1546 4.1841 15.3589 4.95987 17.1281 6.38501L17.1523 7.19119L15.2213 9.12219C12.4744 6.71466 8.29591 6.98983 5.88838 9.73672C3.48086 12.4836 3.75602 16.6621 6.50292 19.0696C9.24981 21.4771 13.4283 21.202 15.8358 18.4551C17.9989 15.987 18.025 12.3061 15.8971 9.80769L17.8281 7.8767L18.6247 7.90566C20.0444 9.6622 20.8226 11.8504 20.8308 14.109ZM10.5869 14.4324C10.7752 14.6196 11.0793 14.6196 11.2676 14.4324L12.2331 13.4669C12.3272 13.6611 12.3766 13.8739 12.3779 14.0897C12.3779 14.8895 11.7295 15.5379 10.9297 15.5379C10.1298 15.5379 9.48141 14.8895 9.48141 14.0897C9.48141 13.2898 10.1298 12.6414 10.9297 12.6414C11.1454 12.6427 11.3582 12.6922 11.5524 12.7862L10.5869 13.7517C10.3997 13.94 10.3997 14.2441 10.5869 14.4324ZM12.2572 12.0766C11.1456 11.3409 9.64796 11.6456 8.91225 12.7573C8.17655 13.8689 8.48128 15.3665 9.59293 16.1022C10.7046 16.8379 12.2022 16.5332 12.9379 15.4216C13.4724 14.6139 13.4724 13.5649 12.9379 12.7573L15.2261 10.4691C17.2321 12.8509 16.9273 16.408 14.5454 18.414C12.1636 20.42 8.60649 20.1152 6.60049 17.7333C4.5945 15.3514 4.89929 11.7944 7.28117 9.78838C9.38004 8.0208 12.4466 8.0208 14.5454 9.78838L12.2572 12.0766ZM18.1274 6.89189L18.0598 4.83539L21.2943 1.60098L21.3474 3.20853C21.3474 3.47512 21.5635 3.69127 21.8301 3.69127L23.4377 3.74438L20.1839 6.95948L18.1274 6.89189Z" fill="#CDD6DF"/>
</g>
<defs>
<clipPath id="clip0">
<rect width="25" height="25" fill="white"/>
</clipPath>
</defs>
</svg>
