<svg width="30" height="27" viewBox="0 0 30 27" fill="none" xmlns="http://www.w3.org/2000/svg">
<g clip-path="url(#clip0)">
<path fill-rule="evenodd" clip-rule="evenodd" d="M13.5648 18.4714C13.4793 19.1688 14.0945 20.0022 15.1541 20.6316C16.4187 21.346 17.8883 21.516 18.5548 21.0058C19.2042 20.4955 19.4093 18.1823 18.982 15.1546C15.906 16.2262 13.7186 17.3998 13.5648 18.4714Z" fill="#FAAD30"/>
<path fill-rule="evenodd" clip-rule="evenodd" d="M9.53117 7.85822C11.3085 5.91918 13.3421 3.69098 15.4611 3.9121C17.4606 4.08219 18.8619 7.50103 19.6822 10.3586C19.9043 11.0729 20.1265 11.9744 20.3145 12.9269C23.3393 12.0084 26.6033 11.3111 29.0984 10.8688L23.9203 1.93904C23.2385 0.731393 21.938 0 20.5537 0H9.44573C8.59126 0 7.77098 0.289155 7.1045 0.799429H7.08741C6.45511 5.51096 6.18168 9.69521 6.74563 10.4266C7.05323 10.5627 8.77925 8.67466 9.53117 7.85822Z" fill="#3359DB"/>
<mask id="mask0" mask-type="alpha" maskUnits="userSpaceOnUse" x="0" y="3" width="30" height="24">
<path d="M0 3.84357H30V26.8909H0V3.84357Z" fill="white"/>
</mask>
<g mask="url(#mask0)">
<path fill-rule="evenodd" clip-rule="evenodd" d="M29.8503 12.4162C26.7743 12.9775 23.459 13.7429 20.6221 14.6274C21.1006 17.7741 21.1348 21.1759 19.5968 22.3495C18.9303 22.8598 18.0758 23.0469 17.2043 22.9959C16.196 22.9448 15.1536 22.5876 14.2991 22.0944C12.5902 21.1078 11.6845 19.6621 11.8724 18.2503C12.1459 16.3113 15.0681 14.7124 18.6911 13.4537C18.5202 12.6033 18.298 11.7188 18.0417 10.8173C16.9138 6.95624 15.7175 5.62953 15.3074 5.59551C14.0599 5.54448 12.2313 7.4325 10.7958 9.01434C8.98436 10.9704 7.42924 12.6713 5.87412 11.8719C4.67787 11.2596 4.57534 7.94277 4.96839 3.84357L0.525189 11.4977C-0.17547 12.7053 -0.17547 14.1851 0.525189 15.3928L6.07919 24.9519C6.76276 26.1596 8.06154 26.8909 9.44577 26.8909H20.5538C21.938 26.8909 23.2368 26.1596 23.9204 24.9519L29.4744 15.3928C30.0041 14.4743 30.1408 13.4027 29.8503 12.4162Z" fill="#3359DB"/>
</g>
</g>
<defs>
<clipPath id="clip0">
<rect width="30" height="26.8909" fill="white"/>
</clipPath>
</defs>
</svg>
