<svg width="10" height="13" viewBox="0 0 10 13" fill="none" xmlns="http://www.w3.org/2000/svg">
<path fill-rule="evenodd" clip-rule="evenodd" d="M9.80469 8.08946L5.47403 12.4201C5.34319 12.551 5.17223 12.6151 4.9987 12.6151C4.82908 12.6164 4.65682 12.5523 4.52463 12.4201L0.19532 8.08946C-0.0650969 7.82909 -0.0650549 7.40577 0.19532 7.14536C0.455694 6.88494 0.879008 6.88494 1.13943 7.14536L5 11.0059L8.86058 7.14536C9.12096 6.88494 9.54427 6.88498 9.80469 7.14536C10.0651 7.40573 10.0651 7.82904 9.80469 8.08946ZM0.195312 4.52563L4.52597 0.194976C4.65681 0.0641375 4.82777 2.07087e-05 5.0013 2.07087e-05C5.17092 -0.00132381 5.34318 0.062793 5.47537 0.194976L9.80468 4.52563C10.0651 4.78601 10.0651 5.20932 9.80468 5.46974C9.54431 5.73015 9.12099 5.73015 8.86058 5.46974L5 1.60916L1.13942 5.46974C0.879043 5.73015 0.455729 5.73011 0.195312 5.46974C-0.0651045 5.20936 -0.0651045 4.78605 0.195312 4.52563Z" fill="#F8F9FA"/>
</svg>
